STARTFONT 2.1
COMMENT
COMMENT Converted from OpenType font "Q:\font stuff\winfont\TeutonWeiss-Bold.otf" by "otf2bdf 3.0".
COMMENT
FONT -FreeType-Teuton Weiss-Bold-R-Normal--28-280-72-72-P-101-ISO10646-1
SIZE 28 72 72
FONTBOUNDINGBOX 25 30 -1 -6
STARTPROPERTIES 19
FOUNDRY "FreeType"
FAMILY_NAME "Teuton Weiss"
WEIGHT_NAME "Bold"
SLANT "R"
SETWIDTH_NAME "Normal"
ADD_STYLE_NAME ""
PIXEL_SIZE 28
POINT_SIZE 280
RESOLUTION_X 72
RESOLUTION_Y 72
SPACING "P"
AVERAGE_WIDTH 101
CHARSET_REGISTRY "ISO10646"
CHARSET_ENCODING "1"
FONT_ASCENT 23
FONT_DESCENT 6
COPYRIGHT "Copyright Copr. 2001, Frantisek Storm, www.stormtype.com. All rights reserved."
_OTF_FONTFILE "Q:\font stuff\winfont\TeutonWeiss-Bold.otf"
_OTF_PSNAME "TeutonWeiss-Bold"
ENDPROPERTIES
CHARS 356
STARTCHAR 0020
ENCODING 32
SWIDTH 250 0
DWIDTH 7 0
BBX 0 0 0 0
BITMAP
ENDCHAR
STARTCHAR 0021
ENCODING 33
SWIDTH 214 0
DWIDTH 6 0
BBX 2 20 2 0
BITMAP
C0
C0
C0
C0
C0
C0
C0
C0
C0
C0
C0
C0
C0
C0
C0
C0
00
00
C0
C0
ENDCHAR
STARTCHAR 0022
ENCODING 34
SWIDTH 285 0
DWIDTH 8 0
BBX 5 5 2 15
BITMAP
D8
D8
D8
D8
D8
ENDCHAR
STARTCHAR 0023
ENCODING 35
SWIDTH 500 0
DWIDTH 14 0
BBX 13 20 1 0
BITMAP
0C30
0C30
0C30
0C30
0C30
1820
7FF8
7FF8
1860
1860
1060
30C0
30C0
FFF0
FFF0
30C0
6080
6180
6180
6180
ENDCHAR
STARTCHAR 0024
ENCODING 36
SWIDTH 392 0
DWIDTH 11 0
BBX 8 20 2 0
BITMAP
18
18
18
7F
FF
C0
C0
E0
70
3C
0E
07
03
03
03
FF
FE
18
18
18
ENDCHAR
STARTCHAR 0025
ENCODING 37
SWIDTH 607 0
DWIDTH 17 0
BBX 15 20 1 0
BITMAP
7C18
EE18
C630
C630
C660
C660
C6C0
C6C0
C780
7D80
0300
037C
06C6
06C6
0CC6
0CC6
18C6
18C6
30EE
307C
ENDCHAR
STARTCHAR 0026
ENCODING 38
SWIDTH 642 0
DWIDTH 18 0
BBX 15 20 2 0
BITMAP
7FC0
FFC0
C000
C000
C000
C000
4010
7FFE
FFFE
C030
C030
C030
C030
C030
C030
C030
C030
C030
FF3E
7F1E
ENDCHAR
STARTCHAR 0027
ENCODING 39
SWIDTH 214 0
DWIDTH 6 0
BBX 2 5 2 15
BITMAP
C0
C0
C0
C0
C0
ENDCHAR
STARTCHAR 0028
ENCODING 40
SWIDTH 321 0
DWIDTH 9 0
BBX 6 26 2 -6
BITMAP
3C
7C
E0
C0
C0
C0
C0
C0
C0
C0
C0
C0
C0
C0
C0
C0
C0
C0
C0
C0
C0
C0
C0
E0
7C
3C
ENDCHAR
STARTCHAR 0029
ENCODING 41
SWIDTH 321 0
DWIDTH 9 0
BBX 6 26 1 -6
BITMAP
F0
F8
1C
0C
0C
0C
0C
0C
0C
0C
0C
0C
0C
0C
0C
0C
0C
0C
0C
0C
0C
0C
0C
1C
F8
F0
ENDCHAR
STARTCHAR 002A
ENCODING 42
SWIDTH 428 0
DWIDTH 12 0
BBX 9 9 2 11
BITMAP
0800
0800
0800
EB80
7F00
1C00
3600
2200
2200
ENDCHAR
STARTCHAR 002B
ENCODING 43
SWIDTH 464 0
DWIDTH 13 0
BBX 10 10 2 4
BITMAP
0C00
0C00
0C00
0C00
FFC0
FFC0
0C00
0C00
0C00
0C00
ENDCHAR
STARTCHAR 002C
ENCODING 44
SWIDTH 214 0
DWIDTH 6 0
BBX 3 6 1 -4
BITMAP
60
60
60
40
C0
C0
ENDCHAR
STARTCHAR 002D
ENCODING 45
SWIDTH 285 0
DWIDTH 8 0
BBX 5 2 1 7
BITMAP
F8
F8
ENDCHAR
STARTCHAR 002E
ENCODING 46
SWIDTH 178 0
DWIDTH 5 0
BBX 2 2 2 1
BITMAP
C0
C0
ENDCHAR
STARTCHAR 002F
ENCODING 47
SWIDTH 428 0
DWIDTH 12 0
BBX 12 26 0 -6
BITMAP
0030
0070
0060
0060
00C0
00C0
00C0
0180
0180
0380
0300
0300
0600
0600
0E00
0C00
0C00
1800
1800
3800
3000
3000
6000
6000
E000
C000
ENDCHAR
STARTCHAR 0030
ENCODING 48
SWIDTH 500 0
DWIDTH 14 0
BBX 10 20 2 0
BITMAP
7F80
FFC0
C0C0
C0C0
C0C0
C0C0
C0C0
C0C0
C0C0
C0C0
C0C0
C0C0
C0C0
C0C0
C0C0
C0C0
C0C0
C0C0
FFC0
7F80
ENDCHAR
STARTCHAR 0031
ENCODING 49
SWIDTH 500 0
DWIDTH 14 0
BBX 9 20 3 1
BITMAP
0400
1C00
3C00
EC00
CC00
8C00
0C00
0C00
0C00
0C00
0C00
0C00
0C00
0C00
0C00
0C00
0C00
0C00
7F80
7F80
ENDCHAR
STARTCHAR 0032
ENCODING 50
SWIDTH 500 0
DWIDTH 14 0
BBX 10 20 2 0
BITMAP
FF80
FFC0
00C0
00C0
00C0
00C0
01C0
0380
0700
0E00
1800
7000
6000
C000
C000
C000
C000
C000
FFC0
FFC0
ENDCHAR
STARTCHAR 0033
ENCODING 51
SWIDTH 500 0
DWIDTH 14 0
BBX 10 20 2 0
BITMAP
FF80
FFC0
00C0
00C0
00C0
00C0
00C0
00C0
00C0
7F80
7F80
00C0
00C0
00C0
00C0
00C0
00C0
00C0
FFC0
FF80
ENDCHAR
STARTCHAR 0034
ENCODING 52
SWIDTH 500 0
DWIDTH 14 0
BBX 12 20 2 0
BITMAP
0180
0380
0380
0780
0D80
0D80
1980
1980
3180
2180
6180
4180
C180
FFF0
FFF0
0180
0180
0180
0180
0180
ENDCHAR
STARTCHAR 0035
ENCODING 53
SWIDTH 500 0
DWIDTH 14 0
BBX 10 20 2 0
BITMAP
FFC0
FFC0
C000
C000
C000
C000
C000
C000
C000
FF80
FFC0
00C0
00C0
00C0
00C0
00C0
00C0
00C0
FFC0
FF80
ENDCHAR
STARTCHAR 0036
ENCODING 54
SWIDTH 500 0
DWIDTH 14 0
BBX 10 20 2 0
BITMAP
7FC0
FFC0
C000
C000
C000
C000
C000
C000
C000
FF80
FFC0
C0C0
C0C0
C0C0
C0C0
C0C0
C0C0
C0C0
FFC0
7F80
ENDCHAR
STARTCHAR 0037
ENCODING 55
SWIDTH 500 0
DWIDTH 14 0
BBX 11 20 2 0
BITMAP
FFE0
FFE0
0060
00C0
00C0
00C0
0180
0180
0300
0300
0300
0600
0600
0600
0C00
0C00
1C00
1800
1800
3800
ENDCHAR
STARTCHAR 0038
ENCODING 56
SWIDTH 500 0
DWIDTH 14 0
BBX 10 20 2 0
BITMAP
7F80
FFC0
C0C0
C0C0
C0C0
C0C0
C0C0
C0C0
C0C0
7F80
7F80
C0C0
C0C0
C0C0
C0C0
C0C0
C0C0
C0C0
FFC0
7F80
ENDCHAR
STARTCHAR 0039
ENCODING 57
SWIDTH 500 0
DWIDTH 14 0
BBX 10 20 2 0
BITMAP
7F80
FFC0
C0C0
C0C0
C0C0
C0C0
C0C0
C0C0
C0C0
FFC0
7FC0
00C0
00C0
00C0
00C0
00C0
00C0
00C0
FFC0
FF80
ENDCHAR
STARTCHAR 003A
ENCODING 58
SWIDTH 214 0
DWIDTH 6 0
BBX 2 14 2 0
BITMAP
C0
C0
00
00
00
00
00
00
00
00
00
00
C0
C0
ENDCHAR
STARTCHAR 003B
ENCODING 59
SWIDTH 214 0
DWIDTH 6 0
BBX 3 18 1 -4
BITMAP
60
60
00
00
00
00
00
00
00
00
00
00
60
60
60
40
C0
C0
ENDCHAR
STARTCHAR 003C
ENCODING 60
SWIDTH 464 0
DWIDTH 13 0
BBX 10 12 2 3
BITMAP
0040
01C0
0700
1C00
7800
E000
E000
3800
1E00
0780
01C0
0040
ENDCHAR
STARTCHAR 003D
ENCODING 61
SWIDTH 464 0
DWIDTH 13 0
BBX 10 8 2 5
BITMAP
FFC0
FFC0
0000
0000
0000
0000
FFC0
FFC0
ENDCHAR
STARTCHAR 003E
ENCODING 62
SWIDTH 464 0
DWIDTH 13 0
BBX 10 12 2 3
BITMAP
8000
E000
3800
1E00
0780
01C0
01C0
0700
1E00
3800
E000
8000
ENDCHAR
STARTCHAR 003F
ENCODING 63
SWIDTH 392 0
DWIDTH 11 0
BBX 10 20 1 0
BITMAP
FF80
FFC0
00C0
00C0
00C0
0180
0380
0600
0C00
1800
1800
1800
1800
1800
1800
1800
0000
0000
1800
1800
ENDCHAR
STARTCHAR 0040
ENCODING 64
SWIDTH 750 0
DWIDTH 21 0
BBX 17 20 2 -3
BITMAP
3FF000
FFF800
C01800
C01800
C01800
C01800
C3F980
C61980
C61980
C61980
C61980
C61980
C61980
C7F980
C3F980
C00180
C00180
C00180
FFFF80
7FFF00
ENDCHAR
STARTCHAR 0041
ENCODING 65
SWIDTH 500 0
DWIDTH 14 0
BBX 14 19 0 1
BITMAP
0780
0780
0780
07C0
0CC0
0CC0
0CC0
18E0
1860
1860
1870
3030
3030
3FF0
7038
6018
6018
E01C
C01C
ENDCHAR
STARTCHAR 0042
ENCODING 66
SWIDTH 571 0
DWIDTH 16 0
BBX 11 20 2 0
BITMAP
FFC0
FFE0
C060
C060
C060
C060
C060
C060
C060
FFE0
FFE0
C060
C060
C060
C060
C060
C060
C060
FFE0
FFC0
ENDCHAR
STARTCHAR 0043
ENCODING 67
SWIDTH 464 0
DWIDTH 13 0
BBX 10 20 2 0
BITMAP
7FC0
FFC0
C000
C000
C000
C000
C000
C000
C000
C000
C000
C000
C000
C000
C000
C000
C000
C000
FFC0
7FC0
ENDCHAR
STARTCHAR 0044
ENCODING 68
SWIDTH 535 0
DWIDTH 15 0
BBX 11 20 2 0
BITMAP
FFC0
FFE0
C060
C060
C060
C060
C060
C060
C060
C060
C060
C060
C060
C060
C060
C060
C060
C060
FFE0
FFC0
ENDCHAR
STARTCHAR 0045
ENCODING 69
SWIDTH 464 0
DWIDTH 13 0
BBX 11 20 2 0
BITMAP
FFC0
FFC0
C000
C000
C000
C000
C000
C000
C000
FF80
FF80
C000
C000
C000
C000
C000
C000
C000
FFE0
FFE0
ENDCHAR
STARTCHAR 0046
ENCODING 70
SWIDTH 428 0
DWIDTH 12 0
BBX 10 20 2 0
BITMAP
FFC0
FFC0
C000
C000
C000
C000
C000
C000
C000
FF80
FF80
C000
C000
C000
C000
C000
C000
C000
C000
C000
ENDCHAR
STARTCHAR 0047
ENCODING 71
SWIDTH 535 0
DWIDTH 15 0
BBX 11 20 2 0
BITMAP
7FE0
FFE0
C000
C000
C000
C000
C000
C000
C000
C7E0
C7E0
C060
C060
C060
C060
C060
C060
C060
FFE0
7FC0
ENDCHAR
STARTCHAR 0048
ENCODING 72
SWIDTH 535 0
DWIDTH 15 0
BBX 11 19 2 1
BITMAP
C060
C060
C060
C060
C060
C060
C060
C060
FFE0
FFE0
C060
C060
C060
C060
C060
C060
C060
C060
C060
ENDCHAR
STARTCHAR 0049
ENCODING 73
SWIDTH 214 0
DWIDTH 6 0
BBX 2 20 2 0
BITMAP
C0
C0
C0
C0
C0
C0
C0
C0
C0
C0
C0
C0
C0
C0
C0
C0
C0
C0
C0
C0
ENDCHAR
STARTCHAR 004A
ENCODING 74
SWIDTH 321 0
DWIDTH 9 0
BBX 7 20 0 0
BITMAP
06
06
06
06
06
06
06
06
06
06
06
06
06
06
06
06
06
06
FE
FC
ENDCHAR
STARTCHAR 004B
ENCODING 75
SWIDTH 535 0
DWIDTH 15 0
BBX 12 19 2 1
BITMAP
C060
C0E0
C0C0
C1C0
C180
C380
C300
C700
FE00
FE00
C300
C300
C180
C180
C1C0
C0C0
C0E0
C060
C070
ENDCHAR
STARTCHAR 004C
ENCODING 76
SWIDTH 464 0
DWIDTH 13 0
BBX 10 20 2 0
BITMAP
C000
C000
C000
C000
C000
C000
C000
C000
C000
C000
C000
C000
C000
C000
C000
C000
C000
C000
FFC0
FFC0
ENDCHAR
STARTCHAR 004D
ENCODING 77
SWIDTH 642 0
DWIDTH 18 0
BBX 14 20 2 0
BITMAP
E01C
F01C
F03C
F03C
D02C
D86C
D86C
C84C
CCCC
CCCC
C48C
C78C
C78C
C70C
C30C
C00C
C00C
C00C
C00C
C00C
ENDCHAR
STARTCHAR 004E
ENCODING 78
SWIDTH 571 0
DWIDTH 16 0
BBX 12 20 2 0
BITMAP
C030
E030
E030
F030
F030
D830
D830
CC30
CC30
C630
C630
C330
C330
C3B0
C1B0
C1F0
C0F0
C0F0
C070
C070
ENDCHAR
STARTCHAR 004F
ENCODING 79
SWIDTH 535 0
DWIDTH 15 0
BBX 11 20 2 0
BITMAP
7FC0
FFE0
C060
C060
C060
C060
C060
C060
C060
C060
C060
C060
C060
C060
C060
C060
C060
C060
FFE0
7FC0
ENDCHAR
STARTCHAR 0050
ENCODING 80
SWIDTH 535 0
DWIDTH 15 0
BBX 11 20 2 0
BITMAP
FFC0
FFE0
C060
C060
C060
C060
C060
C060
C060
FFE0
FFC0
C000
C000
C000
C000
C000
C000
C000
C000
C000
ENDCHAR
STARTCHAR 0051
ENCODING 81
SWIDTH 535 0
DWIDTH 15 0
BBX 11 26 2 -6
BITMAP
7FC0
FFE0
C060
C060
C060
C060
C060
C060
C060
C060
C060
C060
C060
C060
C060
C460
C460
C660
FFE0
7FC0
0300
0100
0180
0180
0080
00C0
ENDCHAR
STARTCHAR 0052
ENCODING 82
SWIDTH 571 0
DWIDTH 16 0
BBX 12 20 2 0
BITMAP
FFC0
FFE0
C060
C060
C060
C060
C060
C060
C060
FFE0
FFC0
C180
C180
C1C0
C0C0
C0C0
C060
C060
C060
C030
ENDCHAR
STARTCHAR 0053
ENCODING 83
SWIDTH 500 0
DWIDTH 14 0
BBX 10 20 2 0
BITMAP
7FC0
FFC0
C000
C000
C000
C000
E000
7000
3800
1C00
0E00
0780
01C0
00C0
00C0
00C0
00C0
00C0
FFC0
FF80
ENDCHAR
STARTCHAR 0054
ENCODING 84
SWIDTH 464 0
DWIDTH 13 0
BBX 12 20 0 0
BITMAP
FFF0
FFF0
0600
0600
0600
0600
0600
0600
0600
0600
0600
0600
0600
0600
0600
0600
0600
0600
0600
0600
ENDCHAR
STARTCHAR 0055
ENCODING 85
SWIDTH 535 0
DWIDTH 15 0
BBX 11 20 2 0
BITMAP
C060
C060
C060
C060
C060
C060
C060
C060
C060
C060
C060
C060
C060
C060
C060
C060
C060
C060
FFE0
7FC0
ENDCHAR
STARTCHAR 0056
ENCODING 86
SWIDTH 500 0
DWIDTH 14 0
BBX 14 20 0 0
BITMAP
C00C
E00C
6018
6018
6018
7038
3030
3030
3830
1860
1860
1860
1CC0
0CC0
0CC0
0CC0
0780
0780
0780
0700
ENDCHAR
STARTCHAR 0057
ENCODING 87
SWIDTH 750 0
DWIDTH 21 0
BBX 20 20 1 0
BITMAP
C06030
C06030
E06030
607060
60F060
60F060
60F060
3090C0
3098C0
3198C0
3198C0
199880
190980
190D80
1B0D80
1B0D00
0F0F00
0E0700
0E0700
0E0700
ENDCHAR
STARTCHAR 0058
ENCODING 88
SWIDTH 535 0
DWIDTH 15 0
BBX 14 20 0 0
BITMAP
6018
7038
3030
3870
1860
0CC0
0CC0
0780
0780
0300
0780
0780
0CC0
0CC0
1860
3870
3030
7038
6018
E01C
ENDCHAR
STARTCHAR 0059
ENCODING 89
SWIDTH 535 0
DWIDTH 15 0
BBX 14 20 0 0
BITMAP
C00C
E01C
6018
7030
3030
1860
1860
0CC0
0EC0
0780
0780
0300
0300
0300
0300
0300
0300
0300
0300
0300
ENDCHAR
STARTCHAR 005A
ENCODING 90
SWIDTH 500 0
DWIDTH 14 0
BBX 12 20 1 0
BITMAP
FFF0
FFF0
0060
00E0
00C0
0180
0180
0300
0300
0600
0600
0C00
0C00
1800
1800
3000
7000
6000
FFF0
FFF0
ENDCHAR
STARTCHAR 005B
ENCODING 91
SWIDTH 392 0
DWIDTH 11 0
BBX 6 26 2 -6
BITMAP
FC
FC
C0
C0
C0
C0
C0
C0
C0
C0
C0
C0
C0
C0
C0
C0
C0
C0
C0
C0
C0
C0
C0
C0
FC
FC
ENDCHAR
STARTCHAR 005C
ENCODING 92
SWIDTH 428 0
DWIDTH 12 0
BBX 12 20 0 0
BITMAP
C000
6000
6000
3000
3000
1800
1800
0C00
0C00
0600
0600
0300
0300
0180
0180
00C0
00C0
0060
0060
0030
ENDCHAR
STARTCHAR 005D
ENCODING 93
SWIDTH 357 0
DWIDTH 10 0
BBX 6 26 1 -6
BITMAP
FC
FC
0C
0C
0C
0C
0C
0C
0C
0C
0C
0C
0C
0C
0C
0C
0C
0C
0C
0C
0C
0C
0C
0C
FC
FC
ENDCHAR
STARTCHAR 005E
ENCODING 94
SWIDTH 357 0
DWIDTH 10 0
BBX 10 8 0 12
BITMAP
0C00
0C00
1E00
1200
3300
6180
4080
C0C0
ENDCHAR
STARTCHAR 005F
ENCODING 95
SWIDTH 714 0
DWIDTH 20 0
BBX 17 2 2 -4
BITMAP
FFFF80
FFFF80
ENDCHAR
STARTCHAR 0060
ENCODING 96
SWIDTH 321 0
DWIDTH 9 0
BBX 4 4 2 15
BITMAP
C0
60
30
10
ENDCHAR
STARTCHAR 0061
ENCODING 97
SWIDTH 464 0
DWIDTH 13 0
BBX 9 14 2 0
BITMAP
FF00
FF80
0180
0180
0180
0180
7F80
C180
C180
C180
C180
C180
FF80
7F80
ENDCHAR
STARTCHAR 0062
ENCODING 98
SWIDTH 464 0
DWIDTH 13 0
BBX 9 20 2 0
BITMAP
C000
C000
C000
C000
C000
C000
FF00
FF80
C180
C180
C180
C180
C180
C180
C180
C180
C180
C180
FF80
FF00
ENDCHAR
STARTCHAR 0063
ENCODING 99
SWIDTH 392 0
DWIDTH 11 0
BBX 8 14 2 0
BITMAP
7F
FF
C0
C0
C0
C0
C0
C0
C0
C0
C0
C0
FF
7F
ENDCHAR
STARTCHAR 0064
ENCODING 100
SWIDTH 464 0
DWIDTH 13 0
BBX 9 20 2 0
BITMAP
0180
0180
0180
0180
0180
0180
7F80
FF80
C180
C180
C180
C180
C180
C180
C180
C180
C180
C180
FF80
7F80
ENDCHAR
STARTCHAR 0065
ENCODING 101
SWIDTH 464 0
DWIDTH 13 0
BBX 9 14 2 0
BITMAP
7F00
FF80
C180
C180
C180
C180
FF80
C000
C000
C000
C000
C000
FF80
7F80
ENDCHAR
STARTCHAR 0066
ENCODING 102
SWIDTH 285 0
DWIDTH 8 0
BBX 6 20 2 0
BITMAP
7C
FC
C0
C0
C0
C0
FC
FC
C0
C0
C0
C0
C0
C0
C0
C0
C0
C0
C0
C0
ENDCHAR
STARTCHAR 0067
ENCODING 103
SWIDTH 464 0
DWIDTH 13 0
BBX 9 20 2 -6
BITMAP
7F80
FF80
C180
C180
C180
C180
C180
C180
C180
C180
C180
C180
FF80
7F80
0180
0180
0180
0180
FF80
FF00
ENDCHAR
STARTCHAR 0068
ENCODING 104
SWIDTH 464 0
DWIDTH 13 0
BBX 9 20 2 0
BITMAP
C000
C000
C000
C000
C000
C000
FF00
FF80
C180
C180
C180
C180
C180
C180
C180
C180
C180
C180
C180
C180
ENDCHAR
STARTCHAR 0069
ENCODING 105
SWIDTH 214 0
DWIDTH 6 0
BBX 2 18 2 1
BITMAP
C0
C0
00
00
C0
C0
C0
C0
C0
C0
C0
C0
C0
C0
C0
C0
C0
C0
ENDCHAR
STARTCHAR 006A
ENCODING 106
SWIDTH 214 0
DWIDTH 6 0
BBX 3 24 1 -5
BITMAP
60
60
00
00
60
60
60
60
60
60
60
60
60
60
60
60
60
60
60
60
60
60
C0
C0
ENDCHAR
STARTCHAR 006B
ENCODING 107
SWIDTH 428 0
DWIDTH 12 0
BBX 9 20 2 0
BITMAP
C000
C000
C000
C000
C000
C000
C180
C380
C300
C300
C600
FE00
FE00
C600
C600
C300
C300
C180
C180
C180
ENDCHAR
STARTCHAR 006C
ENCODING 108
SWIDTH 214 0
DWIDTH 6 0
BBX 2 20 2 0
BITMAP
C0
C0
C0
C0
C0
C0
C0
C0
C0
C0
C0
C0
C0
C0
C0
C0
C0
C0
C0
C0
ENDCHAR
STARTCHAR 006D
ENCODING 109
SWIDTH 678 0
DWIDTH 19 0
BBX 15 14 2 0
BITMAP
FE7C
FFFE
C186
C186
C186
C186
C186
C186
C186
C186
C186
C186
C186
C186
ENDCHAR
STARTCHAR 006E
ENCODING 110
SWIDTH 464 0
DWIDTH 13 0
BBX 9 14 2 0
BITMAP
FF00
FF80
C180
C180
C180
C180
C180
C180
C180
C180
C180
C180
C180
C180
ENDCHAR
STARTCHAR 006F
ENCODING 111
SWIDTH 464 0
DWIDTH 13 0
BBX 9 14 2 0
BITMAP
7F00
FF80
C180
C180
C180
C180
C180
C180
C180
C180
C180
C180
FF80
7F00
ENDCHAR
STARTCHAR 0070
ENCODING 112
SWIDTH 464 0
DWIDTH 13 0
BBX 9 20 2 -6
BITMAP
FF00
FF80
C180
C180
C180
C180
C180
C180
C180
C180
C180
C180
FF80
FF00
C000
C000
C000
C000
C000
C000
ENDCHAR
STARTCHAR 0071
ENCODING 113
SWIDTH 464 0
DWIDTH 13 0
BBX 9 20 2 -6
BITMAP
7F80
FF80
C180
C180
C180
C180
C180
C180
C180
C180
C180
C180
FF80
7F80
0180
0180
0180
0180
0180
0180
ENDCHAR
STARTCHAR 0072
ENCODING 114
SWIDTH 285 0
DWIDTH 8 0
BBX 6 14 2 0
BITMAP
FC
FC
C0
C0
C0
C0
C0
C0
C0
C0
C0
C0
C0
C0
ENDCHAR
STARTCHAR 0073
ENCODING 115
SWIDTH 392 0
DWIDTH 11 0
BBX 9 14 1 0
BITMAP
7F80
FF80
C000
C000
E000
7000
3C00
0F00
0380
0180
0180
0180
FF80
FF00
ENDCHAR
STARTCHAR 0074
ENCODING 116
SWIDTH 285 0
DWIDTH 8 0
BBX 6 18 2 0
BITMAP
40
C0
C0
C0
FC
FC
C0
C0
C0
C0
C0
C0
C0
C0
C0
C0
FC
7C
ENDCHAR
STARTCHAR 0075
ENCODING 117
SWIDTH 464 0
DWIDTH 13 0
BBX 9 14 2 0
BITMAP
C180
C180
C180
C180
C180
C180
C180
C180
C180
C180
C180
C180
FF80
7F80
ENDCHAR
STARTCHAR 0076
ENCODING 118
SWIDTH 392 0
DWIDTH 11 0
BBX 11 14 0 0
BITMAP
C060
E0E0
60C0
60C0
60C0
3180
3180
3180
1900
1B00
1B00
0A00
0E00
0E00
ENDCHAR
STARTCHAR 0077
ENCODING 119
SWIDTH 642 0
DWIDTH 18 0
BBX 17 14 1 0
BITMAP
C1C180
E1C180
61C300
614300
616300
736200
336600
326600
322600
1A3400
1E3C00
1E3C00
1C3C00
0C1800
ENDCHAR
STARTCHAR 0078
ENCODING 120
SWIDTH 428 0
DWIDTH 12 0
BBX 11 14 1 0
BITMAP
E0E0
60C0
3180
3180
1B00
1F00
0E00
0E00
1F00
1B00
3180
3180
60C0
E0E0
ENDCHAR
STARTCHAR 0079
ENCODING 121
SWIDTH 392 0
DWIDTH 11 0
BBX 11 20 0 -6
BITMAP
C060
E0E0
60C0
60C0
60C0
3180
3180
3180
1900
1B00
1B00
0A00
0E00
0E00
0C00
0C00
0C00
1C00
1800
1800
ENDCHAR
STARTCHAR 007A
ENCODING 122
SWIDTH 392 0
DWIDTH 11 0
BBX 9 14 1 0
BITMAP
FF80
FF80
0300
0200
0600
0C00
0C00
1800
1800
3000
2000
6000
FF80
FF80
ENDCHAR
STARTCHAR 007B
ENCODING 123
SWIDTH 321 0
DWIDTH 9 0
BBX 8 26 0 -6
BITMAP
0F
1F
38
30
30
30
30
30
30
30
30
30
E0
70
30
30
30
30
30
30
30
30
30
38
1F
0F
ENDCHAR
STARTCHAR 007C
ENCODING 124
SWIDTH 214 0
DWIDTH 6 0
BBX 2 26 2 -6
BITMAP
C0
C0
C0
C0
C0
C0
C0
C0
C0
C0
C0
C0
C0
C0
C0
C0
C0
C0
C0
C0
C0
C0
C0
C0
C0
C0
ENDCHAR
STARTCHAR 007D
ENCODING 125
SWIDTH 321 0
DWIDTH 9 0
BBX 8 26 1 -6
BITMAP
F0
F8
1C
0C
0C
0C
0C
0C
0C
0C
0C
0C
07
0E
0C
0C
0C
0C
0C
0C
0C
0C
0C
1C
F8
F0
ENDCHAR
STARTCHAR 007E
ENCODING 126
SWIDTH 464 0
DWIDTH 13 0
BBX 11 5 1 12
BITMAP
3020
7C20
CE20
87E0
81C0
ENDCHAR
STARTCHAR 00A0
ENCODING 160
SWIDTH 250 0
DWIDTH 7 0
BBX 0 0 0 0
BITMAP
ENDCHAR
STARTCHAR 00A1
ENCODING 161
SWIDTH 214 0
DWIDTH 6 0
BBX 2 20 2 -6
BITMAP
C0
C0
00
00
C0
C0
C0
C0
C0
C0
C0
C0
C0
C0
C0
C0
C0
C0
C0
C0
ENDCHAR
STARTCHAR 00A2
ENCODING 162
SWIDTH 392 0
DWIDTH 11 0
BBX 9 20 1 0
BITMAP
0C00
0C00
0C00
7F80
FF80
C000
C000
C000
C000
C000
C000
C000
C000
C000
C000
FF80
7F80
0C00
0C00
0C00
ENDCHAR
STARTCHAR 00A3
ENCODING 163
SWIDTH 464 0
DWIDTH 13 0
BBX 11 20 1 0
BITMAP
3F00
7F00
6000
6000
6000
6000
6000
6000
6000
FE00
FE00
6000
6000
6000
6000
6000
6000
6000
7FE0
7FE0
ENDCHAR
STARTCHAR 00A4
ENCODING 164
SWIDTH 500 0
DWIDTH 14 0
BBX 13 19 1 1
BITMAP
E018
6030
7070
3FE0
3FE0
3060
3060
3060
3060
3060
3060
3060
3060
3060
3FE0
3FE0
7030
6030
C018
ENDCHAR
STARTCHAR 00A5
ENCODING 165
SWIDTH 535 0
DWIDTH 15 0
BBX 14 20 0 0
BITMAP
C00C
E01C
6018
7038
3030
1860
1860
0CC0
0EC0
0780
0780
0300
0300
0FC0
0300
0300
0300
0300
0300
0300
ENDCHAR
STARTCHAR 00A7
ENCODING 167
SWIDTH 428 0
DWIDTH 12 0
BBX 10 26 1 -6
BITMAP
7FC0
FFC0
C000
C000
C000
E000
F800
DC00
CE00
C380
C1C0
C0C0
C0C0
C0C0
E0C0
70C0
1CC0
0EC0
07C0
01C0
00C0
00C0
00C0
00C0
FFC0
FF80
ENDCHAR
STARTCHAR 00A8
ENCODING 168
SWIDTH 357 0
DWIDTH 10 0
BBX 6 2 2 17
BITMAP
CC
CC
ENDCHAR
STARTCHAR 00A9
ENCODING 169
SWIDTH 678 0
DWIDTH 19 0
BBX 15 20 2 0
BITMAP
7FFC
E00E
C006
C006
DFE6
D806
D806
D806
D806
D806
D806
D806
D806
D806
D806
D806
CFE6
C006
E00E
7FFC
ENDCHAR
STARTCHAR 00AA
ENCODING 170
SWIDTH 464 0
DWIDTH 13 0
BBX 9 20 2 0
BITMAP
FF00
FF80
0180
0180
0180
0180
7F80
C180
C180
C180
C180
C180
FF80
7F80
0000
0000
0000
0000
FF80
FF80
ENDCHAR
STARTCHAR 00AB
ENCODING 171
SWIDTH 607 0
DWIDTH 17 0
BBX 15 13 1 1
BITMAP
0100
0306
060E
1C18
3870
70E0
C1C0
E1C0
7070
1C38
0E1C
0706
0102
ENDCHAR
STARTCHAR 00AC
ENCODING 172
SWIDTH 464 0
DWIDTH 13 0
BBX 10 9 1 0
BITMAP
FFC0
FFC0
00C0
00C0
00C0
00C0
00C0
00C0
00C0
ENDCHAR
STARTCHAR 00AE
ENCODING 174
SWIDTH 678 0
DWIDTH 19 0
BBX 15 20 2 0
BITMAP
7FFC
E00E
C006
C006
DFF6
D836
D836
D836
D836
DFF6
D8C6
D846
D866
D826
D826
D836
D816
C006
E00E
7FFC
ENDCHAR
STARTCHAR 00AF
ENCODING 175
SWIDTH 357 0
DWIDTH 10 0
BBX 6 1 2 16
BITMAP
FC
ENDCHAR
STARTCHAR 00B0
ENCODING 176
SWIDTH 321 0
DWIDTH 9 0
BBX 7 10 1 10
BITMAP
7C
EE
C6
C6
C6
C6
C6
C6
C6
7C
ENDCHAR
STARTCHAR 00B1
ENCODING 177
SWIDTH 464 0
DWIDTH 13 0
BBX 10 14 2 1
BITMAP
0C00
0C00
0C00
0C00
FFC0
FFC0
0C00
0C00
0C00
0C00
0000
0000
FFC0
FFC0
ENDCHAR
STARTCHAR 00B4
ENCODING 180
SWIDTH 321 0
DWIDTH 9 0
BBX 4 4 3 15
BITMAP
30
60
C0
80
ENDCHAR
STARTCHAR 00B5
ENCODING 181
SWIDTH 464 0
DWIDTH 13 0
BBX 9 20 2 -6
BITMAP
C180
C180
C180
C180
C180
C180
C180
C180
C180
C180
C180
C180
FF80
FF80
C000
C000
C000
C000
C000
C000
ENDCHAR
STARTCHAR 00B6
ENCODING 182
SWIDTH 535 0
DWIDTH 15 0
BBX 11 20 2 0
BITMAP
3FE0
FFE0
FFE0
FFE0
FFE0
FFE0
FFE0
FFE0
FFE0
FFE0
7FE0
0060
0060
0060
0060
0060
0060
0060
0060
0060
ENDCHAR
STARTCHAR 00B7
ENCODING 183
SWIDTH 214 0
DWIDTH 6 0
BBX 2 2 2 8
BITMAP
C0
C0
ENDCHAR
STARTCHAR 00B8
ENCODING 184
SWIDTH 357 0
DWIDTH 10 0
BBX 6 6 2 -5
BITMAP
20
78
0C
0C
0C
F8
ENDCHAR
STARTCHAR 00BA
ENCODING 186
SWIDTH 464 0
DWIDTH 13 0
BBX 9 20 2 0
BITMAP
7F00
FF80
C180
C180
C180
C180
C180
C180
C180
C180
C180
C180
FF80
7F00
0000
0000
0000
0000
FF80
FF80
ENDCHAR
STARTCHAR 00BB
ENCODING 187
SWIDTH 607 0
DWIDTH 17 0
BBX 15 13 1 1
BITMAP
0100
C180
E0C0
3070
1C38
0E1C
0706
070E
0C1C
3830
70E0
C1C0
8100
ENDCHAR
STARTCHAR 00BF
ENCODING 191
SWIDTH 392 0
DWIDTH 11 0
BBX 10 20 1 -6
BITMAP
0600
0600
0000
0000
0600
0600
0600
0600
0600
0600
0600
0C00
1800
7000
6000
C000
C000
C000
FFC0
7FC0
ENDCHAR
STARTCHAR 00C0
ENCODING 192
SWIDTH 500 0
DWIDTH 14 0
BBX 14 22 0 1
BITMAP
0FC0
0000
0000
0780
0780
0780
07C0
0CC0
0CC0
0CC0
18E0
1860
1860
1870
3070
3030
3FF0
7038
6018
6018
E01C
E01C
ENDCHAR
STARTCHAR 00C1
ENCODING 193
SWIDTH 500 0
DWIDTH 14 0
BBX 14 23 0 0
BITMAP
0860
0860
07C0
0000
0700
0780
0780
0D80
0CC0
0CC0
0CC0
18E0
1860
1860
3860
3030
3030
3FF0
7018
6018
6018
E01C
C00C
ENDCHAR
STARTCHAR 00C2
ENCODING 194
SWIDTH 500 0
DWIDTH 14 0
BBX 14 23 0 0
BITMAP
0CC0
0CC0
0000
0000
0380
0780
0780
0780
0CC0
0CC0
0CC0
1860
1860
1860
1870
3030
3030
3FF0
7038
6018
6018
E01C
C00C
ENDCHAR
STARTCHAR 00C3
ENCODING 195
SWIDTH 392 0
DWIDTH 11 0
BBX 8 20 2 0
BITMAP
03
06
04
08
00
00
7F
FF
C0
C0
C0
C0
C0
C0
C0
C0
C0
C0
FF
7F
ENDCHAR
STARTCHAR 00C4
ENCODING 196
SWIDTH 500 0
DWIDTH 14 0
BBX 14 23 0 0
BITMAP
0C00
0200
0100
0000
0380
0780
0780
06C0
0EC0
0CC0
0CC0
0C60
1860
1860
1870
3830
3030
3FF0
7038
7018
6018
E01C
E00C
ENDCHAR
STARTCHAR 00C5
ENCODING 197
SWIDTH 500 0
DWIDTH 14 0
BBX 14 23 0 0
BITMAP
0E20
1320
10C0
0000
0780
0780
0780
0580
0DC0
0CC0
0CC0
18E0
1860
1860
3870
3070
3030
3FF0
7038
6038
6018
E01C
E01C
ENDCHAR
STARTCHAR 00C6
ENCODING 198
SWIDTH 785 0
DWIDTH 22 0
BBX 21 20 -1 0
BITMAP
003FF8
007FF8
007800
00D800
00D800
019800
019800
031800
031800
061FE0
061FE0
0C1800
0C1800
181800
3FF800
301800
701800
601800
E01FF8
C01FF8
ENDCHAR
STARTCHAR 00C7
ENCODING 199
SWIDTH 464 0
DWIDTH 13 0
BBX 11 24 2 0
BITMAP
0600
0F00
1980
0000
7FE0
FFE0
C000
C000
C000
C000
C000
C000
C000
C000
C000
C000
C000
C000
C000
C000
C000
C000
FFE0
7FE0
ENDCHAR
STARTCHAR 00C8
ENCODING 200
SWIDTH 464 0
DWIDTH 13 0
BBX 10 24 2 0
BITMAP
3000
1800
0400
0000
FF80
FF80
C000
C000
C000
C000
C000
C000
C000
FF00
FF00
C000
C000
C000
C000
C000
C000
C000
FFC0
FFC0
ENDCHAR
STARTCHAR 00C9
ENCODING 201
SWIDTH 464 0
DWIDTH 13 0
BBX 11 24 2 0
BITMAP
0180
0300
0400
0000
FFC0
FFC0
C000
C000
C000
C000
C000
C000
C000
FF80
FF80
C000
C000
C000
C000
C000
C000
C000
FFE0
FFE0
ENDCHAR
STARTCHAR 00CA
ENCODING 202
SWIDTH 464 0
DWIDTH 13 0
BBX 10 24 2 0
BITMAP
0C00
1E00
3100
0000
FF80
FF80
C000
C000
C000
C000
C000
C000
C000
FF80
FF80
C000
C000
C000
C000
C000
C000
C000
FFC0
FFC0
ENDCHAR
STARTCHAR 00CB
ENCODING 203
SWIDTH 464 0
DWIDTH 13 0
BBX 11 23 2 0
BITMAP
1980
1980
0000
FFC0
FFC0
C000
C000
C000
C000
C000
C000
C000
FF80
FF80
C000
C000
C000
C000
C000
C000
C000
FFE0
FFE0
ENDCHAR
STARTCHAR 00CC
ENCODING 204
SWIDTH 214 0
DWIDTH 6 0
BBX 4 23 0 1
BITMAP
C0
60
30
30
30
30
30
30
30
30
30
30
30
30
30
30
30
30
30
30
30
30
30
ENDCHAR
STARTCHAR 00CD
ENCODING 205
SWIDTH 214 0
DWIDTH 6 0
BBX 3 23 2 1
BITMAP
20
40
80
C0
C0
C0
C0
C0
C0
C0
C0
C0
C0
C0
C0
C0
C0
C0
C0
C0
C0
C0
C0
ENDCHAR
STARTCHAR 00CE
ENCODING 206
SWIDTH 214 0
DWIDTH 6 0
BBX 7 23 0 1
BITMAP
38
4C
86
30
30
30
30
30
30
30
30
30
30
30
30
30
30
30
30
30
30
30
30
ENDCHAR
STARTCHAR 00CF
ENCODING 207
SWIDTH 214 0
DWIDTH 6 0
BBX 6 23 0 0
BITMAP
CC
CC
00
30
30
30
30
30
30
30
30
30
30
30
30
30
30
30
30
30
30
30
30
ENDCHAR
STARTCHAR 00D1
ENCODING 209
SWIDTH 571 0
DWIDTH 16 0
BBX 11 23 2 0
BITMAP
1C40
2640
2180
0000
E060
E060
F060
F060
D060
D860
D860
CC60
CC60
C660
C660
C260
C360
C160
C1E0
C1E0
C0E0
C0E0
C060
ENDCHAR
STARTCHAR 00D2
ENCODING 210
SWIDTH 535 0
DWIDTH 15 0
BBX 11 24 2 0
BITMAP
1800
0C00
0600
0000
7FC0
FFE0
C060
C060
C060
C060
C060
C060
C060
C060
C060
C060
C060
C060
C060
C060
C060
C060
FFE0
7FC0
ENDCHAR
STARTCHAR 00D3
ENCODING 211
SWIDTH 535 0
DWIDTH 15 0
BBX 11 24 2 0
BITMAP
0180
0300
0200
0000
7FC0
FFE0
C060
C060
C060
C060
C060
C060
C060
C060
C060
C060
C060
C060
C060
C060
C060
C060
FFE0
7FC0
ENDCHAR
STARTCHAR 00D4
ENCODING 212
SWIDTH 535 0
DWIDTH 15 0
BBX 11 24 2 0
BITMAP
0400
0A00
1100
0000
7FC0
FFE0
C060
C060
C060
C060
C060
C060
C060
C060
C060
C060
C060
C060
C060
C060
C060
C060
FFE0
7FC0
ENDCHAR
STARTCHAR 00D5
ENCODING 213
SWIDTH 535 0
DWIDTH 15 0
BBX 11 23 2 0
BITMAP
3840
4640
4380
7FC0
FFE0
C060
C060
C060
C060
C060
C060
C060
C060
C060
C060
C060
C060
C060
C060
C060
C060
FFE0
7FC0
ENDCHAR
STARTCHAR 00D6
ENCODING 214
SWIDTH 535 0
DWIDTH 15 0
BBX 11 23 2 0
BITMAP
1980
1980
0000
7FC0
FFE0
C060
C060
C060
C060
C060
C060
C060
C060
C060
C060
C060
C060
C060
C060
C060
C060
FFE0
7FC0
ENDCHAR
STARTCHAR 00D8
ENCODING 216
SWIDTH 571 0
DWIDTH 16 0
BBX 15 20 0 0
BITMAP
1FF2
3FFC
3018
3018
3018
3038
3078
3058
3098
3198
3118
3218
3418
3C18
3818
3018
3018
3018
5FF8
9FF0
ENDCHAR
STARTCHAR 00D9
ENCODING 217
SWIDTH 535 0
DWIDTH 15 0
BBX 11 23 2 1
BITMAP
1800
0C00
0200
C060
C060
C060
C060
C060
C060
C060
C060
C060
C060
C060
C060
C060
C060
C060
C060
C060
C060
FFE0
7FC0
ENDCHAR
STARTCHAR 00DA
ENCODING 218
SWIDTH 535 0
DWIDTH 15 0
BBX 11 23 2 1
BITMAP
0300
0600
0C00
C060
C060
C060
C060
C060
C060
C060
C060
C060
C060
C060
C060
C060
C060
C060
C060
C060
C060
FFE0
7FC0
ENDCHAR
STARTCHAR 00DB
ENCODING 219
SWIDTH 535 0
DWIDTH 15 0
BBX 11 23 2 1
BITMAP
0E00
1B00
3180
C060
C060
C060
C060
C060
C060
C060
C060
C060
C060
C060
C060
C060
C060
C060
C060
C060
C060
FFE0
7FC0
ENDCHAR
STARTCHAR 00DC
ENCODING 220
SWIDTH 535 0
DWIDTH 15 0
BBX 11 23 2 0
BITMAP
1980
1980
0000
C060
C060
C060
C060
C060
C060
C060
C060
C060
C060
C060
C060
C060
C060
C060
C060
C060
C060
FFE0
7FC0
ENDCHAR
STARTCHAR 00DD
ENCODING 221
SWIDTH 535 0
DWIDTH 15 0
BBX 14 23 0 1
BITMAP
00C0
0100
0200
E00C
601C
7018
3030
3830
1860
1C60
0CC0
0EC0
0780
0780
0300
0300
0300
0300
0300
0300
0300
0300
0300
ENDCHAR
STARTCHAR 00DF
ENCODING 223
SWIDTH 500 0
DWIDTH 14 0
BBX 10 20 2 0
BITMAP
7F80
FFC0
C0C0
C0C0
C0C0
C1C0
C380
C700
CC00
CC00
CC00
CE00
C780
C1C0
C0C0
C0C0
C0C0
C0C0
CFC0
CF80
ENDCHAR
STARTCHAR 00E0
ENCODING 224
SWIDTH 464 0
DWIDTH 13 0
BBX 10 18 2 0
BITMAP
3F00
0000
0000
0000
FF80
FFC0
00C0
00C0
00C0
00C0
7FC0
C0C0
C0C0
C0C0
C0C0
C0C0
FFC0
7FC0
ENDCHAR
STARTCHAR 00E1
ENCODING 225
SWIDTH 464 0
DWIDTH 13 0
BBX 10 19 2 1
BITMAP
2080
3080
1F00
0000
0000
FF80
FFC0
00C0
00C0
00C0
00C0
7FC0
C0C0
C0C0
C0C0
C0C0
C0C0
FFC0
7FC0
ENDCHAR
STARTCHAR 00E2
ENCODING 226
SWIDTH 464 0
DWIDTH 13 0
BBX 10 19 2 0
BITMAP
3300
3300
0000
0000
0000
FF80
FFC0
00C0
00C0
00C0
00C0
7FC0
C0C0
C0C0
C0C0
C0C0
C0C0
FFC0
7FC0
ENDCHAR
STARTCHAR 00E3
ENCODING 227
SWIDTH 500 0
DWIDTH 14 0
BBX 14 23 0 0
BITMAP
00C0
0100
0600
0000
0700
0780
0780
0D80
0DC0
0CC0
0CC0
18E0
1860
1860
3860
3070
3030
3FF0
7038
6018
6018
E01C
C01C
ENDCHAR
STARTCHAR 00E4
ENCODING 228
SWIDTH 464 0
DWIDTH 13 0
BBX 9 20 2 0
BITMAP
6000
3000
1800
0C00
0000
0000
FF00
FF80
0180
0180
0180
0180
7F80
C180
C180
C180
C180
C180
FF80
7F80
ENDCHAR
STARTCHAR 00E5
ENCODING 229
SWIDTH 464 0
DWIDTH 13 0
BBX 9 20 2 0
BITMAP
7080
F880
C780
C300
0000
0000
FF00
FF80
0080
0080
0080
0080
7F80
C080
C080
C080
C080
C080
FF80
7F80
ENDCHAR
STARTCHAR 00E6
ENCODING 230
SWIDTH 714 0
DWIDTH 20 0
BBX 16 14 2 0
BITMAP
FF7E
FFFF
0183
0183
0183
0183
7FFF
C180
C180
C180
C180
C180
FFFF
7F7F
ENDCHAR
STARTCHAR 00E7
ENCODING 231
SWIDTH 392 0
DWIDTH 11 0
BBX 8 20 2 0
BITMAP
08
1C
36
22
00
00
7F
FF
C0
C0
C0
C0
C0
C0
C0
C0
C0
C0
FF
7F
ENDCHAR
STARTCHAR 00E8
ENCODING 232
SWIDTH 464 0
DWIDTH 13 0
BBX 9 20 2 0
BITMAP
3000
3000
1800
0C00
0000
0000
7F00
FF80
C180
C180
C180
C180
FF80
C000
C000
C000
C000
C000
FF80
7F80
ENDCHAR
STARTCHAR 00E9
ENCODING 233
SWIDTH 464 0
DWIDTH 13 0
BBX 9 20 2 0
BITMAP
0300
0600
0400
0800
0000
0000
7F00
FF80
C180
C180
C180
C180
FF80
C000
C000
C000
C000
C000
FF80
7F80
ENDCHAR
STARTCHAR 00EA
ENCODING 234
SWIDTH 464 0
DWIDTH 13 0
BBX 9 20 2 0
BITMAP
0C00
1E00
1300
2100
0000
0000
7F00
FF80
C080
C080
C080
C080
FF80
C000
C000
C000
C000
C000
FF80
7F80
ENDCHAR
STARTCHAR 00EB
ENCODING 235
SWIDTH 464 0
DWIDTH 13 0
BBX 10 19 2 0
BITMAP
3300
3300
0000
0000
0000
7F80
FFC0
C0C0
C0C0
C0C0
C0C0
FFC0
C000
C000
C000
C000
C000
FFC0
7FC0
ENDCHAR
STARTCHAR 00EC
ENCODING 236
SWIDTH 214 0
DWIDTH 6 0
BBX 5 20 -1 0
BITMAP
C0
60
30
18
00
00
38
38
38
38
38
38
38
38
38
38
38
38
38
38
ENDCHAR
STARTCHAR 00ED
ENCODING 237
SWIDTH 214 0
DWIDTH 6 0
BBX 4 20 2 0
BITMAP
30
20
40
C0
00
00
C0
C0
C0
C0
C0
C0
C0
C0
C0
C0
C0
C0
C0
C0
ENDCHAR
STARTCHAR 00EE
ENCODING 238
SWIDTH 214 0
DWIDTH 6 0
BBX 6 20 0 0
BITMAP
30
70
C8
8C
00
00
30
30
30
30
30
30
30
30
30
30
30
30
30
30
ENDCHAR
STARTCHAR 00EF
ENCODING 239
SWIDTH 214 0
DWIDTH 6 0
BBX 6 19 0 0
BITMAP
CC
CC
00
00
00
30
30
30
30
30
30
30
30
30
30
30
30
30
30
ENDCHAR
STARTCHAR 00F0
ENCODING 240
SWIDTH 500 0
DWIDTH 14 0
BBX 10 19 2 1
BITMAP
6000
3600
1800
3C00
2600
0300
0180
00C0
7FC0
FFC0
C0C0
C0C0
C0C0
C0C0
C0C0
C0C0
C0C0
FFC0
7F80
ENDCHAR
STARTCHAR 00F1
ENCODING 241
SWIDTH 464 0
DWIDTH 13 0
BBX 9 20 2 0
BITMAP
7180
F980
C780
C300
0000
0000
FF00
FF80
C180
C180
C180
C180
C180
C180
C180
C180
C180
C180
C180
C180
ENDCHAR
STARTCHAR 00F2
ENCODING 242
SWIDTH 464 0
DWIDTH 13 0
BBX 9 20 2 0
BITMAP
3000
3000
1800
0C00
0000
0000
7F00
FF80
C180
C180
C180
C180
C180
C180
C180
C180
C180
C180
FF80
7F00
ENDCHAR
STARTCHAR 00F3
ENCODING 243
SWIDTH 464 0
DWIDTH 13 0
BBX 10 20 2 0
BITMAP
0380
0300
0600
0C00
0000
0000
7F80
FFC0
C0C0
C0C0
C0C0
C0C0
C0C0
C0C0
C0C0
C0C0
C0C0
C0C0
FFC0
7F80
ENDCHAR
STARTCHAR 00F4
ENCODING 244
SWIDTH 464 0
DWIDTH 13 0
BBX 9 20 2 0
BITMAP
0800
1C00
3600
2200
0000
0000
7F00
FF80
C180
C180
C180
C180
C180
C180
C180
C180
C180
C180
FF80
7F00
ENDCHAR
STARTCHAR 00F5
ENCODING 245
SWIDTH 464 0
DWIDTH 13 0
BBX 9 20 2 0
BITMAP
7180
F980
C780
C300
0000
0000
7F00
FF80
C180
C180
C180
C180
C180
C180
C180
C180
C180
C180
FF80
7F00
ENDCHAR
STARTCHAR 00F6
ENCODING 246
SWIDTH 464 0
DWIDTH 13 0
BBX 10 19 2 0
BITMAP
3300
3300
0000
0000
0000
7F80
FFC0
C0C0
C0C0
C0C0
C0C0
C0C0
C0C0
C0C0
C0C0
C0C0
C0C0
FFC0
7F80
ENDCHAR
STARTCHAR 00F7
ENCODING 247
SWIDTH 464 0
DWIDTH 13 0
BBX 10 12 1 2
BITMAP
0C00
0C00
0000
0000
0000
FFC0
FFC0
0000
0000
0000
0C00
0C00
ENDCHAR
STARTCHAR 00F8
ENCODING 248
SWIDTH 464 0
DWIDTH 13 0
BBX 11 14 1 0
BITMAP
3FA0
7FE0
60C0
60C0
61C0
62C0
66C0
64C0
68C0
70C0
70C0
60C0
7FC0
BF80
ENDCHAR
STARTCHAR 00F9
ENCODING 249
SWIDTH 464 0
DWIDTH 13 0
BBX 9 20 2 0
BITMAP
6000
3000
1800
0800
0000
0000
C180
C180
C180
C180
C180
C180
C180
C180
C180
C180
C180
C180
FF80
7F80
ENDCHAR
STARTCHAR 00FA
ENCODING 250
SWIDTH 464 0
DWIDTH 13 0
BBX 10 20 2 0
BITMAP
0180
0300
0600
0C00
0000
0000
C0C0
C0C0
C0C0
C0C0
C0C0
C0C0
C0C0
C0C0
C0C0
C0C0
C0C0
C0C0
FFC0
7FC0
ENDCHAR
STARTCHAR 00FB
ENCODING 251
SWIDTH 464 0
DWIDTH 13 0
BBX 9 20 2 0
BITMAP
0800
1C00
3600
2200
0000
0000
C180
C180
C180
C180
C180
C180
C180
C180
C180
C180
C180
C180
FF80
7F80
ENDCHAR
STARTCHAR 00FC
ENCODING 252
SWIDTH 464 0
DWIDTH 13 0
BBX 10 19 2 0
BITMAP
3300
3300
0000
0000
0000
C0C0
C0C0
C0C0
C0C0
C0C0
C0C0
C0C0
C0C0
C0C0
C0C0
C0C0
C0C0
FFC0
7FC0
ENDCHAR
STARTCHAR 00FD
ENCODING 253
SWIDTH 392 0
DWIDTH 11 0
BBX 11 26 0 -6
BITMAP
0180
0100
0300
0600
0000
0000
C060
E060
60C0
60C0
70C0
3080
3180
3180
1980
1900
1B00
0F00
0E00
0E00
0600
0C00
0C00
0C00
1C00
1800
ENDCHAR
STARTCHAR 00FF
ENCODING 255
SWIDTH 392 0
DWIDTH 11 0
BBX 11 25 0 -6
BITMAP
1980
1980
0000
0000
0000
E060
6060
6040
60C0
30C0
3080
3180
1180
1900
1B00
0B00
0E00
0E00
0600
0E00
0C00
0C00
0C00
1800
1800
ENDCHAR
STARTCHAR 0100
ENCODING 256
SWIDTH 500 0
DWIDTH 14 0
BBX 14 25 0 -5
BITMAP
0700
0780
0780
0580
0D80
0CC0
0CC0
18C0
1860
1860
1860
3060
3030
3FF0
3030
6018
6018
6018
E01C
C01C
0018
0060
00C0
00C0
007C
ENDCHAR
STARTCHAR 0101
ENCODING 257
SWIDTH 464 0
DWIDTH 13 0
BBX 9 20 2 -6
BITMAP
FF00
FF80
0180
0180
0180
0180
7F80
C180
C180
C180
C180
C180
FF80
FF80
7F80
0300
0C00
0800
0C00
0F80
ENDCHAR
STARTCHAR 0102
ENCODING 258
SWIDTH 500 0
DWIDTH 14 0
BBX 14 23 0 0
BITMAP
0700
0D80
18C0
0000
0700
0700
0580
0D80
0D80
0DC0
18C0
18C0
18E0
18E0
3060
3070
3070
3FF0
6038
6038
6038
C01C
C01C
ENDCHAR
STARTCHAR 0103
ENCODING 259
SWIDTH 464 0
DWIDTH 13 0
BBX 9 20 2 0
BITMAP
0800
1C00
3600
2200
0000
0000
FF00
FF80
0180
0180
0180
0180
7F80
C180
C180
C180
C180
C180
FF80
7F80
ENDCHAR
STARTCHAR 0104
ENCODING 260
SWIDTH 500 0
DWIDTH 14 0
BBX 14 24 0 0
BITMAP
0780
0840
0840
0F80
0000
0780
0780
0780
07C0
0CC0
0CC0
0CC0
1CE0
1860
1860
1870
3070
3030
3FF0
7038
6038
6018
E01C
E01C
ENDCHAR
STARTCHAR 0105
ENCODING 261
SWIDTH 464 0
DWIDTH 13 0
BBX 9 20 2 0
BITMAP
3E00
2200
2200
2200
1C00
0000
FF00
FF80
0180
0180
0180
0180
7F80
C180
C180
C180
C180
C180
FF80
7F80
ENDCHAR
STARTCHAR 0106
ENCODING 262
SWIDTH 464 0
DWIDTH 13 0
BBX 10 24 2 0
BITMAP
3080
1900
0E00
0000
7FC0
FFC0
C000
C000
C000
C000
C000
C000
C000
C000
C000
C000
C000
C000
C000
C000
C000
C000
FFC0
7FC0
ENDCHAR
STARTCHAR 0107
ENCODING 263
SWIDTH 392 0
DWIDTH 11 0
BBX 8 20 2 0
BITMAP
61
32
16
1C
00
00
7F
FF
C0
C0
C0
C0
C0
C0
C0
C0
C0
C0
FF
7F
ENDCHAR
STARTCHAR 0108
ENCODING 264
SWIDTH 464 0
DWIDTH 13 0
BBX 10 23 2 0
BITMAP
0C00
0C00
0000
7FC0
FFC0
C000
C000
C000
C000
C000
C000
C000
C000
C000
C000
C000
C000
C000
C000
C000
C000
FFC0
7FC0
ENDCHAR
STARTCHAR 0109
ENCODING 265
SWIDTH 392 0
DWIDTH 11 0
BBX 7 18 2 1
BITMAP
18
18
00
00
7E
FE
C0
C0
C0
C0
C0
C0
C0
C0
C0
C0
FE
7E
ENDCHAR
STARTCHAR 010A
ENCODING 266
SWIDTH 535 0
DWIDTH 15 0
BBX 11 24 2 0
BITMAP
2180
1B00
0E00
0000
FFC0
FFE0
C060
C060
C060
C060
C060
C060
C060
C060
C060
C060
C060
C060
C060
C060
C060
C060
FFE0
FFC0
ENDCHAR
STARTCHAR 010B
ENCODING 267
SWIDTH 464 0
DWIDTH 13 0
BBX 11 24 2 0
BITMAP
0180
0300
0600
0000
7FE0
FFE0
C000
C000
C000
C000
C000
C000
C000
C000
C000
C000
C000
C000
C000
C000
C000
C000
FFE0
7FE0
ENDCHAR
STARTCHAR 010C
ENCODING 268
SWIDTH 464 0
DWIDTH 13 0
BBX 11 26 2 -6
BITMAP
7FE0
FFE0
C000
C000
C000
C000
C000
C000
C000
C000
C000
C000
C000
C000
C000
C000
C000
C000
FFE0
7FE0
0600
0780
00C0
00C0
00C0
0F80
ENDCHAR
STARTCHAR 010D
ENCODING 269
SWIDTH 392 0
DWIDTH 11 0
BBX 7 20 2 -6
BITMAP
7E
FE
C0
C0
C0
C0
C0
C0
C0
C0
C0
C0
FE
7E
10
1C
06
06
06
3C
ENDCHAR
STARTCHAR 010E
ENCODING 270
SWIDTH 535 0
DWIDTH 15 0
BBX 11 22 2 1
BITMAP
3F00
0000
FFC0
FFE0
C060
C060
C060
C060
C060
C060
C060
C060
C060
C060
C060
C060
C060
C060
C060
C060
FFE0
FFC0
ENDCHAR
STARTCHAR 010F
ENCODING 271
SWIDTH 464 0
DWIDTH 13 0
BBX 11 19 2 1
BITMAP
00C0
07E0
00C0
00C0
00C0
7FC0
FFC0
C0C0
C0C0
C0C0
C0C0
C0C0
C0C0
C0C0
C0C0
C0C0
C0C0
FFC0
7FC0
ENDCHAR
STARTCHAR 0111
ENCODING 273
SWIDTH 464 0
DWIDTH 13 0
BBX 9 19 2 1
BITMAP
0180
7F80
0180
0180
0180
7F80
FF80
C180
C180
C180
C180
C180
C180
C180
C180
C180
C180
FF80
7F80
ENDCHAR
STARTCHAR 0112
ENCODING 274
SWIDTH 464 0
DWIDTH 13 0
BBX 11 22 2 1
BITMAP
1F80
0000
FFC0
FFC0
C000
C000
C000
C000
C000
C000
C000
FF80
FF80
C000
C000
C000
C000
C000
C000
C000
FFE0
FFE0
ENDCHAR
STARTCHAR 0113
ENCODING 275
SWIDTH 464 0
DWIDTH 13 0
BBX 9 18 2 0
BITMAP
3F00
0000
0000
0000
7F00
FF80
C180
C180
C180
C180
FF80
C000
C000
C000
C000
C000
FF00
7F00
ENDCHAR
STARTCHAR 0114
ENCODING 276
SWIDTH 464 0
DWIDTH 13 0
BBX 11 23 2 0
BITMAP
2180
2180
1F00
FFC0
FFC0
C000
C000
C000
C000
C000
C000
C000
FF80
FF80
C000
C000
C000
C000
C000
C000
C000
FFE0
FFE0
ENDCHAR
STARTCHAR 0115
ENCODING 277
SWIDTH 464 0
DWIDTH 13 0
BBX 9 19 2 1
BITMAP
4100
4100
3E00
0000
0000
7F00
FF80
C180
C180
C180
C180
FF80
C000
C000
C000
C000
C000
FF80
7F80
ENDCHAR
STARTCHAR 0116
ENCODING 278
SWIDTH 464 0
DWIDTH 13 0
BBX 11 23 2 0
BITMAP
0600
0600
0000
FFE0
FFE0
C000
C000
C000
C000
C000
C000
C000
FF80
FF80
C000
C000
C000
C000
C000
C000
C000
FFE0
FFE0
ENDCHAR
STARTCHAR 0117
ENCODING 279
SWIDTH 464 0
DWIDTH 13 0
BBX 9 18 2 1
BITMAP
0C00
0C00
0000
0000
7F00
FF80
C180
C180
C180
C180
FF80
C000
C000
C000
C000
C000
FF80
7F80
ENDCHAR
STARTCHAR 0118
ENCODING 280
SWIDTH 464 0
DWIDTH 13 0
BBX 10 26 2 -6
BITMAP
FFC0
FFC0
C000
C000
C000
C000
C000
C000
C000
FF00
FF00
C000
C000
C000
C000
C000
C000
C000
FFC0
FFC0
FFC0
0100
0600
0C00
0C00
0780
ENDCHAR
STARTCHAR 0119
ENCODING 281
SWIDTH 464 0
DWIDTH 13 0
BBX 9 20 2 -6
BITMAP
7F00
FF80
C180
C180
C180
C180
FF80
C000
C000
C000
C000
C000
FF80
FF80
7F80
0600
0800
1800
1800
1F00
ENDCHAR
STARTCHAR 011A
ENCODING 282
SWIDTH 464 0
DWIDTH 13 0
BBX 11 24 2 0
BITMAP
2180
1B00
0E00
0000
FFC0
FFC0
C000
C000
C000
C000
C000
C000
C000
FF80
FF80
C000
C000
C000
C000
C000
C000
C000
FFE0
FFE0
ENDCHAR
STARTCHAR 011B
ENCODING 283
SWIDTH 464 0
DWIDTH 13 0
BBX 9 20 2 0
BITMAP
6180
3300
1A00
0E00
0000
0000
7F00
FF80
C080
C080
C080
C080
FF80
C000
C000
C000
C000
C000
FF80
7F80
ENDCHAR
STARTCHAR 011C
ENCODING 284
SWIDTH 535 0
DWIDTH 15 0
BBX 11 24 2 0
BITMAP
0600
0F00
1180
0000
7FE0
FFE0
C000
C000
C000
C000
C000
C000
C000
C7E0
C7E0
C060
C060
C060
C060
C060
C060
C060
FFE0
7FC0
ENDCHAR
STARTCHAR 011D
ENCODING 285
SWIDTH 464 0
DWIDTH 13 0
BBX 9 26 2 -6
BITMAP
0C00
1C00
1600
2300
0000
0000
7F80
FF80
C180
C180
C180
C180
C180
C180
C180
C180
C180
C180
FF80
7F80
0180
0180
0180
0180
FF80
FF00
ENDCHAR
STARTCHAR 011E
ENCODING 286
SWIDTH 535 0
DWIDTH 15 0
BBX 11 23 2 0
BITMAP
10C0
10C0
0F80
7FE0
FFE0
C000
C000
C000
C000
C000
C000
C000
C3E0
C3E0
C060
C060
C060
C060
C060
C060
C060
FFE0
7FC0
ENDCHAR
STARTCHAR 011F
ENCODING 287
SWIDTH 464 0
DWIDTH 13 0
BBX 10 25 2 -5
BITMAP
4080
6080
3F00
0000
0000
7FC0
FFC0
C0C0
C0C0
C0C0
C0C0
C0C0
C0C0
C0C0
C0C0
C0C0
C0C0
FFC0
7FC0
00C0
00C0
00C0
00C0
FFC0
FF80
ENDCHAR
STARTCHAR 0120
ENCODING 288
SWIDTH 535 0
DWIDTH 15 0
BBX 11 23 2 0
BITMAP
0600
0600
0000
7FE0
FFE0
C000
C000
C000
C000
C000
C000
C000
C7E0
C7E0
C060
C060
C060
C060
C060
C060
C060
FFE0
7FC0
ENDCHAR
STARTCHAR 0121
ENCODING 289
SWIDTH 464 0
DWIDTH 13 0
BBX 9 24 2 -5
BITMAP
0C00
0C00
0000
0000
7F80
FF80
C180
C180
C180
C180
C180
C180
C180
C180
C180
C180
FF80
7F80
0180
0180
0180
0180
FF80
FF00
ENDCHAR
STARTCHAR 0122
ENCODING 290
SWIDTH 535 0
DWIDTH 15 0
BBX 11 26 2 -6
BITMAP
7FE0
FFE0
C000
C000
C000
C000
C000
C000
C000
C3E0
C3E0
C060
C060
C060
C060
C060
C060
C060
FFE0
7FC0
0000
0300
0300
0300
0600
0600
ENDCHAR
STARTCHAR 0123
ENCODING 291
SWIDTH 464 0
DWIDTH 13 0
BBX 9 26 2 -5
BITMAP
0200
0200
0600
0600
0600
0000
7F80
FF80
C180
C180
C180
C180
C180
C180
C180
C180
C180
C180
FF80
7F80
0180
0180
0180
0180
FF80
FF00
ENDCHAR
STARTCHAR 0124
ENCODING 292
SWIDTH 535 0
DWIDTH 15 0
BBX 11 23 2 1
BITMAP
0E00
1B00
3180
0000
C060
C060
C060
C060
C060
C060
C060
C060
FFE0
FFE0
C060
C060
C060
C060
C060
C060
C060
C060
C060
ENDCHAR
STARTCHAR 0125
ENCODING 293
SWIDTH 464 0
DWIDTH 13 0
BBX 11 23 1 1
BITMAP
3800
6400
C200
6000
6000
6000
6000
6000
6000
7FC0
7FE0
6060
6060
6060
6060
6060
6060
6060
6060
6060
6060
6060
6060
ENDCHAR
STARTCHAR 0126
ENCODING 294
SWIDTH 535 0
DWIDTH 15 0
BBX 14 19 1 1
BITMAP
6030
FFFC
6030
6030
6030
6030
6030
6030
7FF0
7FF0
6030
6030
6030
6030
6030
6030
6030
6030
6030
ENDCHAR
STARTCHAR 0127
ENCODING 295
SWIDTH 464 0
DWIDTH 13 0
BBX 11 19 1 1
BITMAP
6000
FC00
6000
6000
6000
7FC0
7FE0
6060
6060
6060
6060
6060
6060
6060
6060
6060
6060
6060
6060
ENDCHAR
STARTCHAR 0128
ENCODING 296
SWIDTH 214 0
DWIDTH 6 0
BBX 8 23 -1 0
BITMAP
71
89
86
00
18
18
18
18
18
18
18
18
18
18
18
18
18
18
18
18
18
18
18
ENDCHAR
STARTCHAR 0129
ENCODING 297
SWIDTH 214 0
DWIDTH 6 0
BBX 8 20 -1 0
BITMAP
71
F9
8F
86
00
00
18
18
18
18
18
18
18
18
18
18
18
18
18
18
ENDCHAR
STARTCHAR 012A
ENCODING 298
SWIDTH 214 0
DWIDTH 6 0
BBX 6 22 0 1
BITMAP
FC
00
00
30
30
30
30
30
30
30
30
30
30
30
30
30
30
30
30
30
30
30
ENDCHAR
STARTCHAR 012B
ENCODING 299
SWIDTH 214 0
DWIDTH 6 0
BBX 6 18 0 0
BITMAP
FC
00
00
00
30
30
30
30
30
30
30
30
30
30
30
30
30
30
ENDCHAR
STARTCHAR 012C
ENCODING 300
SWIDTH 214 0
DWIDTH 6 0
BBX 7 23 0 0
BITMAP
86
86
7C
00
30
30
30
30
30
30
30
30
30
30
30
30
30
30
30
30
30
30
30
ENDCHAR
STARTCHAR 012D
ENCODING 301
SWIDTH 214 0
DWIDTH 6 0
BBX 7 19 0 1
BITMAP
86
86
7C
00
00
30
30
30
30
30
30
30
30
30
30
30
30
30
30
ENDCHAR
STARTCHAR 012E
ENCODING 302
SWIDTH 214 0
DWIDTH 6 0
BBX 5 25 -1 -6
BITMAP
18
18
18
18
18
18
18
18
18
18
18
18
18
18
18
18
18
18
18
18
30
40
C0
C0
F8
ENDCHAR
STARTCHAR 012F
ENCODING 303
SWIDTH 214 0
DWIDTH 6 0
BBX 5 24 0 -5
BITMAP
30
30
00
00
30
30
30
30
30
30
30
30
30
30
30
30
30
30
30
60
40
C0
C0
78
ENDCHAR
STARTCHAR 0130
ENCODING 304
SWIDTH 214 0
DWIDTH 6 0
BBX 2 23 2 0
BITMAP
C0
C0
00
C0
C0
C0
C0
C0
C0
C0
C0
C0
C0
C0
C0
C0
C0
C0
C0
C0
C0
C0
C0
ENDCHAR
STARTCHAR 0131
ENCODING 305
SWIDTH 214 0
DWIDTH 6 0
BBX 2 14 2 0
BITMAP
C0
C0
C0
C0
C0
C0
C0
C0
C0
C0
C0
C0
C0
C0
ENDCHAR
STARTCHAR 0132
ENCODING 306
SWIDTH 500 0
DWIDTH 14 0
BBX 10 20 2 0
BITMAP
C1C0
C1C0
C1C0
C1C0
C1C0
C1C0
C1C0
C1C0
C1C0
C1C0
C1C0
C1C0
C1C0
C1C0
C1C0
C1C0
C1C0
C180
DF80
DF00
ENDCHAR
STARTCHAR 0133
ENCODING 307
SWIDTH 428 0
DWIDTH 12 0
BBX 8 24 2 -5
BITMAP
C3
C3
00
00
C3
C3
C3
C3
C3
C3
C3
C3
C3
C3
C3
C3
C3
C3
03
03
03
02
06
06
ENDCHAR
STARTCHAR 0134
ENCODING 308
SWIDTH 321 0
DWIDTH 9 0
BBX 9 23 0 1
BITMAP
0E00
1900
3080
0600
0600
0600
0600
0600
0600
0600
0600
0600
0600
0600
0600
0600
0600
0600
0600
0600
0600
FE00
FC00
ENDCHAR
STARTCHAR 0135
ENCODING 309
SWIDTH 214 0
DWIDTH 6 0
BBX 6 25 0 -6
BITMAP
30
78
C8
84
00
00
30
30
30
30
30
30
30
30
30
30
30
30
30
30
30
30
30
30
60
ENDCHAR
STARTCHAR 0136
ENCODING 310
SWIDTH 535 0
DWIDTH 15 0
BBX 12 25 2 -5
BITMAP
C070
C060
C0E0
C0C0
C1C0
C180
C380
C300
FF00
FF00
C380
C380
C180
C1C0
C0C0
C0E0
C060
C070
C030
0000
0600
0600
0600
0C00
0C00
ENDCHAR
STARTCHAR 0137
ENCODING 311
SWIDTH 428 0
DWIDTH 12 0
BBX 10 26 2 -6
BITMAP
C000
C000
C000
C000
C000
C000
C180
C180
C300
C300
C600
FE00
FE00
C600
C700
C300
C300
C180
C180
C1C0
0000
0C00
0C00
0C00
1800
1800
ENDCHAR
STARTCHAR 0139
ENCODING 313
SWIDTH 464 0
DWIDTH 13 0
BBX 10 23 2 1
BITMAP
1000
2000
C000
C000
C000
C000
C000
C000
C000
C000
C000
C000
C000
C000
C000
C000
C000
C000
C000
C000
C000
FFC0
FFC0
ENDCHAR
STARTCHAR 013A
ENCODING 314
SWIDTH 214 0
DWIDTH 6 0
BBX 4 23 2 1
BITMAP
30
60
C0
C0
C0
C0
C0
C0
C0
C0
C0
C0
C0
C0
C0
C0
C0
C0
C0
C0
C0
C0
C0
ENDCHAR
STARTCHAR 013B
ENCODING 315
SWIDTH 464 0
DWIDTH 13 0
BBX 11 26 2 -6
BITMAP
C000
C000
C000
C000
C000
C000
C000
C000
C000
C000
C000
C000
C000
C000
C000
C000
C000
C000
FFE0
FFE0
0000
0600
0600
0600
0C00
0C00
ENDCHAR
STARTCHAR 013C
ENCODING 316
SWIDTH 214 0
DWIDTH 6 0
BBX 3 26 1 -6
BITMAP
60
60
60
60
60
60
60
60
60
60
60
60
60
60
60
60
60
60
60
60
00
60
60
60
40
C0
ENDCHAR
STARTCHAR 013D
ENCODING 317
SWIDTH 464 0
DWIDTH 13 0
BBX 11 20 2 0
BITMAP
C200
C200
C200
C200
C200
C000
C000
C000
C000
C000
C000
C000
C000
C000
C000
C000
C000
C000
FFE0
FFE0
ENDCHAR
STARTCHAR 013E
ENCODING 318
SWIDTH 250 0
DWIDTH 7 0
BBX 5 20 2 0
BITMAP
C8
C8
D8
D8
D8
C0
C0
C0
C0
C0
C0
C0
C0
C0
C0
C0
C0
C0
C0
C0
ENDCHAR
STARTCHAR 013F
ENCODING 319
SWIDTH 464 0
DWIDTH 13 0
BBX 10 20 2 0
BITMAP
C000
C000
C000
C000
C000
C000
C000
C000
CC00
CC00
C000
C000
C000
C000
C000
C000
C000
C000
FFC0
FFC0
ENDCHAR
STARTCHAR 0140
ENCODING 320
SWIDTH 250 0
DWIDTH 7 0
BBX 4 20 2 0
BITMAP
C0
C0
C0
C0
C0
C0
C0
C0
D0
D0
C0
C0
C0
C0
C0
C0
C0
C0
C0
C0
ENDCHAR
STARTCHAR 0141
ENCODING 321
SWIDTH 464 0
DWIDTH 13 0
BBX 12 20 1 0
BITMAP
6000
6000
6000
6000
6000
6100
6300
6600
6C00
7800
7000
E000
E000
6000
6000
6000
6000
6000
7FF0
7FF0
ENDCHAR
STARTCHAR 0142
ENCODING 322
SWIDTH 214 0
DWIDTH 6 0
BBX 4 20 1 0
BITMAP
60
60
60
60
60
60
60
70
70
60
60
E0
E0
60
60
60
60
60
60
60
ENDCHAR
STARTCHAR 0143
ENCODING 323
SWIDTH 571 0
DWIDTH 16 0
BBX 12 23 2 1
BITMAP
0180
0300
0400
C030
E030
E030
F030
F030
D830
D830
CC30
CC30
C630
C630
C330
C330
C3B0
C1B0
C1F0
C0F0
C0F0
C070
C070
ENDCHAR
STARTCHAR 0144
ENCODING 324
SWIDTH 464 0
DWIDTH 13 0
BBX 10 20 2 0
BITMAP
0380
0300
0600
0C00
0000
0000
FF80
FFC0
C0C0
C0C0
C0C0
C0C0
C0C0
C0C0
C0C0
C0C0
C0C0
C0C0
C0C0
C0C0
ENDCHAR
STARTCHAR 0145
ENCODING 325
SWIDTH 571 0
DWIDTH 16 0
BBX 12 26 2 -6
BITMAP
C030
E030
E030
F030
F030
D830
D830
CC30
CC30
C630
C630
C330
C330
C3B0
C1B0
C1F0
C0F0
C0F0
C070
C070
0000
0600
0600
0600
0400
0C00
ENDCHAR
STARTCHAR 0146
ENCODING 326
SWIDTH 464 0
DWIDTH 13 0
BBX 9 20 2 -6
BITMAP
FF00
FF80
C180
C180
C180
C180
C180
C180
C180
C180
C180
C180
C180
C180
0000
0C00
0C00
0C00
1800
1800
ENDCHAR
STARTCHAR 0147
ENCODING 327
SWIDTH 571 0
DWIDTH 16 0
BBX 12 23 2 1
BITMAP
1100
0A00
0400
C030
E030
E030
F030
F030
D830
D830
CC30
CC30
CE30
C630
C730
C330
C3B0
C3B0
C1F0
C1F0
C0F0
C0F0
C070
ENDCHAR
STARTCHAR 0148
ENCODING 328
SWIDTH 464 0
DWIDTH 13 0
BBX 9 20 2 0
BITMAP
6300
2200
3400
1C00
0000
0000
FF00
FF80
C180
C180
C180
C180
C180
C180
C180
C180
C180
C180
C180
C180
ENDCHAR
STARTCHAR 0149
ENCODING 329
SWIDTH 464 0
DWIDTH 13 0
BBX 9 20 2 0
BITMAP
C000
C000
8000
8000
8000
0000
FF00
FF80
C180
C180
C180
C180
C180
C180
C180
C180
C180
C180
C180
C180
ENDCHAR
STARTCHAR 014A
ENCODING 330
SWIDTH 571 0
DWIDTH 16 0
BBX 12 24 2 -4
BITMAP
C030
E030
E030
F030
F030
D830
D830
CC30
CC30
C630
C630
C330
C330
C1B0
C1B0
C0F0
C0F0
C070
C070
C030
0030
0020
0060
0060
ENDCHAR
STARTCHAR 014B
ENCODING 331
SWIDTH 464 0
DWIDTH 13 0
BBX 9 18 2 -4
BITMAP
FF00
FF80
C180
C180
C180
C180
C180
C180
C180
C180
C180
C180
C180
C180
0180
0180
0300
0300
ENDCHAR
STARTCHAR 014C
ENCODING 332
SWIDTH 535 0
DWIDTH 15 0
BBX 11 22 2 1
BITMAP
1F80
0000
7FC0
FFE0
C060
C060
C060
C060
C060
C060
C060
C060
C060
C060
C060
C060
C060
C060
C060
C060
FFE0
7FC0
ENDCHAR
STARTCHAR 014D
ENCODING 333
SWIDTH 464 0
DWIDTH 13 0
BBX 10 18 2 0
BITMAP
3F00
0000
0000
0000
7F80
FFC0
C0C0
C0C0
C0C0
C0C0
C0C0
C0C0
C0C0
C0C0
C0C0
C0C0
FFC0
7F80
ENDCHAR
STARTCHAR 014E
ENCODING 334
SWIDTH 535 0
DWIDTH 15 0
BBX 11 23 2 0
BITMAP
10C0
10C0
0F80
7FC0
FFE0
C060
C060
C060
C060
C060
C060
C060
C060
C060
C060
C060
C060
C060
C060
C060
C060
FFE0
7FC0
ENDCHAR
STARTCHAR 014F
ENCODING 335
SWIDTH 464 0
DWIDTH 13 0
BBX 10 19 2 1
BITMAP
4180
4180
3F00
0000
0000
7F80
FFC0
C1C0
C1C0
C1C0
C1C0
C1C0
C1C0
C1C0
C1C0
C1C0
C1C0
FFC0
7F80
ENDCHAR
STARTCHAR 0150
ENCODING 336
SWIDTH 535 0
DWIDTH 15 0
BBX 12 23 2 0
BITMAP
0660
0CC0
1980
7FE0
FFF0
C030
C030
C030
C030
C030
C030
C030
C030
C030
C030
C030
C030
C030
C030
C030
C030
FFF0
7FE0
ENDCHAR
STARTCHAR 0151
ENCODING 337
SWIDTH 464 0
DWIDTH 13 0
BBX 9 20 2 0
BITMAP
0980
1900
3200
2600
0000
0000
7F00
FF80
C180
C180
C180
C180
C180
C180
C180
C180
C180
C180
FF80
7F00
ENDCHAR
STARTCHAR 0152
ENCODING 338
SWIDTH 821 0
DWIDTH 23 0
BBX 19 20 2 0
BITMAP
7FFFE0
FFFFE0
C06000
C06000
C06000
C06000
C06000
C06000
C06000
C07F80
C07F80
C06000
C06000
C06000
C06000
C06000
C06000
C06000
FFFFE0
7FFFE0
ENDCHAR
STARTCHAR 0153
ENCODING 339
SWIDTH 714 0
DWIDTH 20 0
BBX 16 14 2 0
BITMAP
7F7E
FFFF
C183
C183
C183
C183
C1FF
C180
C180
C180
C180
C180
FFFF
7F7F
ENDCHAR
STARTCHAR 0154
ENCODING 340
SWIDTH 571 0
DWIDTH 16 0
BBX 12 24 2 0
BITMAP
0300
0600
0C00
0000
FFC0
FFE0
C060
C060
C060
C060
C060
C060
C060
FFE0
FFC0
C180
C180
C0C0
C0C0
C0C0
C060
C060
C060
C030
ENDCHAR
STARTCHAR 0155
ENCODING 341
SWIDTH 285 0
DWIDTH 8 0
BBX 7 20 2 0
BITMAP
06
0C
18
30
00
00
FC
FC
C0
C0
C0
C0
C0
C0
C0
C0
C0
C0
C0
C0
ENDCHAR
STARTCHAR 0156
ENCODING 342
SWIDTH 571 0
DWIDTH 16 0
BBX 12 26 2 -6
BITMAP
FFC0
FFE0
C060
C060
C060
C060
C060
C060
C060
FFE0
FFC0
C180
C180
C0C0
C0C0
C0C0
C060
C060
C060
C030
0000
0600
0600
0600
0C00
0C00
ENDCHAR
STARTCHAR 0157
ENCODING 343
SWIDTH 285 0
DWIDTH 8 0
BBX 7 20 1 -6
BITMAP
7E
7E
60
60
60
60
60
60
60
60
60
60
60
60
00
60
60
60
C0
C0
ENDCHAR
STARTCHAR 0158
ENCODING 344
SWIDTH 571 0
DWIDTH 16 0
BBX 12 24 2 0
BITMAP
2100
1200
0C00
0000
FFC0
FFE0
C060
C060
C060
C060
C060
C060
C060
FFE0
FFC0
C300
C180
C180
C0C0
C0C0
C0C0
C060
C060
C030
ENDCHAR
STARTCHAR 0159
ENCODING 345
SWIDTH 285 0
DWIDTH 8 0
BBX 8 20 1 0
BITMAP
C3
46
2C
38
00
00
DE
FE
C0
C0
C0
C0
C0
C0
C0
C0
C0
C0
C0
C0
ENDCHAR
STARTCHAR 015A
ENCODING 346
SWIDTH 500 0
DWIDTH 14 0
BBX 10 24 2 0
BITMAP
0300
0600
0C00
0000
7FC0
FFC0
C000
C000
C000
C000
E000
7000
3800
1C00
0E00
0780
01C0
00C0
00C0
00C0
00C0
00C0
FFC0
FF80
ENDCHAR
STARTCHAR 015B
ENCODING 347
SWIDTH 392 0
DWIDTH 11 0
BBX 9 20 1 0
BITMAP
0300
0600
0400
0C00
0000
0000
7F80
FF80
C000
C000
E000
7000
3C00
0F00
0380
0180
0180
0180
FF80
FF00
ENDCHAR
STARTCHAR 015C
ENCODING 348
SWIDTH 500 0
DWIDTH 14 0
BBX 11 24 2 0
BITMAP
0600
0B00
1180
0000
7FE0
FFE0
C000
C000
C000
C000
E000
7000
3C00
0E00
0700
0380
01C0
0060
0060
0060
0060
0060
FFE0
FFC0
ENDCHAR
STARTCHAR 015D
ENCODING 349
SWIDTH 392 0
DWIDTH 11 0
BBX 8 20 1 0
BITMAP
08
1C
36
23
00
00
7F
FF
C0
C0
E0
70
38
0E
03
01
01
01
FF
FE
ENDCHAR
STARTCHAR 015E
ENCODING 350
SWIDTH 500 0
DWIDTH 14 0
BBX 10 26 2 -6
BITMAP
7FC0
FFC0
C000
C000
C000
C000
E000
7000
3800
1C00
0E00
0780
01C0
00C0
00C0
00C0
00C0
00C0
FFC0
FF80
0800
0E00
0300
0300
0300
3E00
ENDCHAR
STARTCHAR 015F
ENCODING 351
SWIDTH 392 0
DWIDTH 11 0
BBX 9 20 1 -6
BITMAP
7F80
FF80
C000
C000
E000
7000
3C00
0F00
0380
0180
0180
0180
FF80
FF00
0800
1E00
0300
0300
0300
3E00
ENDCHAR
STARTCHAR 0160
ENCODING 352
SWIDTH 500 0
DWIDTH 14 0
BBX 11 24 2 0
BITMAP
3080
1900
0E00
0000
7FE0
FFE0
C000
C000
C000
C000
E000
7000
3C00
0E00
0700
0380
01C0
0060
0060
0060
0060
0060
FFE0
FFC0
ENDCHAR
STARTCHAR 0161
ENCODING 353
SWIDTH 392 0
DWIDTH 11 0
BBX 9 20 1 0
BITMAP
6100
2300
1600
1C00
0000
0000
7F00
FF00
C000
C000
E000
7000
3C00
0F00
0380
0180
0180
0180
FF80
FF00
ENDCHAR
STARTCHAR 0162
ENCODING 354
SWIDTH 464 0
DWIDTH 13 0
BBX 11 26 0 -6
BITMAP
FFE0
FFE0
0600
0600
0600
0600
0600
0600
0600
0600
0600
0600
0600
0600
0600
0600
0600
0600
0600
0600
0000
0600
0600
0600
0400
0400
ENDCHAR
STARTCHAR 0163
ENCODING 355
SWIDTH 285 0
DWIDTH 8 0
BBX 5 24 2 -6
BITMAP
40
C0
C0
C0
F8
F8
C0
C0
C0
C0
C0
C0
C0
C0
C0
C0
F8
78
00
30
30
30
20
60
ENDCHAR
STARTCHAR 0164
ENCODING 356
SWIDTH 464 0
DWIDTH 13 0
BBX 11 24 1 0
BITMAP
2180
1300
0E00
0000
FFE0
FFE0
0C00
0C00
0C00
0C00
0C00
0C00
0C00
0C00
0C00
0C00
0C00
0C00
0C00
0C00
0C00
0C00
0C00
0C00
ENDCHAR
STARTCHAR 0165
ENCODING 357
SWIDTH 285 0
DWIDTH 8 0
BBX 6 20 2 0
BITMAP
08
08
48
C8
C8
C0
FC
FC
C0
C0
C0
C0
C0
C0
C0
C0
C0
C0
FC
7C
ENDCHAR
STARTCHAR 0166
ENCODING 358
SWIDTH 464 0
DWIDTH 13 0
BBX 11 20 2 0
BITMAP
FFE0
FFE0
0C00
0C00
0C00
0C00
0C00
0C00
0C00
0C00
0C00
FFC0
FFC0
0C00
0C00
0C00
0C00
0C00
0C00
0C00
ENDCHAR
STARTCHAR 0167
ENCODING 359
SWIDTH 285 0
DWIDTH 8 0
BBX 8 17 0 1
BITMAP
30
30
30
3F
3F
30
30
30
FF
FF
30
30
30
30
30
3F
1F
ENDCHAR
STARTCHAR 0168
ENCODING 360
SWIDTH 535 0
DWIDTH 15 0
BBX 11 23 2 0
BITMAP
3840
4640
4380
0000
C060
C060
C060
C060
C060
C060
C060
C060
C060
C060
C060
C060
C060
C060
C060
C060
C060
FFE0
7FC0
ENDCHAR
STARTCHAR 0169
ENCODING 361
SWIDTH 464 0
DWIDTH 13 0
BBX 9 20 2 0
BITMAP
7180
F980
C780
C300
0000
0000
C180
C180
C180
C180
C180
C180
C180
C180
C180
C180
C180
C180
FF80
7F80
ENDCHAR
STARTCHAR 016A
ENCODING 362
SWIDTH 535 0
DWIDTH 15 0
BBX 11 22 2 1
BITMAP
1F80
0000
0000
C060
C060
C060
C060
C060
C060
C060
C060
C060
C060
C060
C060
C060
C060
C060
C060
C060
FFE0
7FC0
ENDCHAR
STARTCHAR 016B
ENCODING 363
SWIDTH 464 0
DWIDTH 13 0
BBX 10 18 2 0
BITMAP
3F00
0000
0000
0000
C0C0
C0C0
C0C0
C0C0
C0C0
C0C0
C0C0
C0C0
C0C0
C0C0
C0C0
C0C0
FFC0
7FC0
ENDCHAR
STARTCHAR 016C
ENCODING 364
SWIDTH 535 0
DWIDTH 15 0
BBX 11 23 2 0
BITMAP
10C0
10C0
0F80
0000
C060
C060
C060
C060
C060
C060
C060
C060
C060
C060
C060
C060
C060
C060
C060
C060
C060
FFE0
7FC0
ENDCHAR
STARTCHAR 016D
ENCODING 365
SWIDTH 464 0
DWIDTH 13 0
BBX 10 19 2 1
BITMAP
4180
4180
3F00
0000
0000
C1C0
C1C0
C1C0
C1C0
C1C0
C1C0
C1C0
C1C0
C1C0
C1C0
C1C0
C1C0
FFC0
7FC0
ENDCHAR
STARTCHAR 016E
ENCODING 366
SWIDTH 535 0
DWIDTH 15 0
BBX 11 24 2 0
BITMAP
1F00
1080
1080
1F00
0000
C060
C060
C060
C060
C060
C060
C060
C060
C060
C060
C060
C060
C060
C060
C060
C060
C060
FFE0
7FC0
ENDCHAR
STARTCHAR 016F
ENCODING 367
SWIDTH 464 0
DWIDTH 13 0
BBX 9 20 2 0
BITMAP
3E00
2200
2200
2200
1C00
0000
C180
C180
C180
C180
C180
C180
C180
C180
C180
C180
C180
C180
FF80
7F80
ENDCHAR
STARTCHAR 0170
ENCODING 368
SWIDTH 535 0
DWIDTH 15 0
BBX 11 23 2 0
BITMAP
06C0
0C80
1900
0000
C060
C060
C060
C060
C060
C060
C060
C060
C060
C060
C060
C060
C060
C060
C060
C060
C060
FFE0
7FC0
ENDCHAR
STARTCHAR 0171
ENCODING 369
SWIDTH 464 0
DWIDTH 13 0
BBX 10 20 2 0
BITMAP
0CC0
0980
1100
2200
0000
0000
C0C0
C0C0
C0C0
C0C0
C0C0
C0C0
C0C0
C0C0
C0C0
C0C0
C0C0
C0C0
FFC0
7FC0
ENDCHAR
STARTCHAR 0172
ENCODING 370
SWIDTH 535 0
DWIDTH 15 0
BBX 11 26 2 -6
BITMAP
C060
C060
C060
C060
C060
C060
C060
C060
C060
C060
C060
C060
C060
C060
C060
C060
C060
C060
FFE0
FFE0
7FC0
0300
0400
0C00
0C00
0F00
ENDCHAR
STARTCHAR 0173
ENCODING 371
SWIDTH 464 0
DWIDTH 13 0
BBX 9 20 2 -6
BITMAP
C180
C180
C180
C180
C180
C180
C180
C180
C180
C180
C180
C180
FF80
FF80
7F80
0300
0C00
0800
0C00
0F80
ENDCHAR
STARTCHAR 0174
ENCODING 372
SWIDTH 750 0
DWIDTH 21 0
BBX 20 23 1 1
BITMAP
007000
00D800
018C00
C03030
C07030
E07030
607020
605060
605860
70D860
30D840
30D840
3088C0
3888C0
198CC0
198C80
198C80
1D0580
0D0580
0F0780
0F0700
0F0700
060300
ENDCHAR
STARTCHAR 0175
ENCODING 373
SWIDTH 642 0
DWIDTH 18 0
BBX 17 20 1 0
BITMAP
008000
01C000
036000
022000
000000
000000
C1C180
E1C180
61C300
614300
616300
736200
336600
336600
322600
1A3400
1E3C00
1E3C00
1C3800
0C1800
ENDCHAR
STARTCHAR 0176
ENCODING 374
SWIDTH 535 0
DWIDTH 15 0
BBX 15 23 0 1
BITMAP
0380
0640
0C20
E00E
600C
701C
3818
1838
1C30
0C70
0E60
06E0
03C0
0380
0180
0180
0180
0180
0180
0180
0180
0180
0180
ENDCHAR
STARTCHAR 0177
ENCODING 375
SWIDTH 392 0
DWIDTH 11 0
BBX 11 26 0 -6
BITMAP
0400
0E00
1B00
1100
0000
0000
C060
E0E0
60C0
60C0
70C0
3180
3180
3180
1900
1B00
1B00
0A00
0E00
0E00
0C00
0C00
0C00
1C00
1800
1800
ENDCHAR
STARTCHAR 0178
ENCODING 376
SWIDTH 535 0
DWIDTH 15 0
BBX 15 23 0 0
BITMAP
0660
0660
0000
E006
600E
700C
3018
3838
1830
1C60
0CE0
0EC0
0780
0780
0300
0300
0300
0300
0300
0300
0300
0300
0300
ENDCHAR
STARTCHAR 0179
ENCODING 377
SWIDTH 500 0
DWIDTH 14 0
BBX 12 24 1 0
BITMAP
0180
0300
0600
0000
FFF0
FFF0
0060
00E0
00C0
0180
0180
0300
0300
0600
0600
0C00
0C00
1800
3800
3000
7000
6000
FFF0
FFF0
ENDCHAR
STARTCHAR 017A
ENCODING 378
SWIDTH 392 0
DWIDTH 11 0
BBX 9 20 1 0
BITMAP
0300
0600
0C00
0800
0000
0000
FF80
FF80
0300
0200
0600
0C00
0C00
1800
1800
3000
2000
6000
FF80
FF80
ENDCHAR
STARTCHAR 017B
ENCODING 379
SWIDTH 500 0
DWIDTH 14 0
BBX 12 23 1 0
BITMAP
0600
0600
0000
FFF0
FFF0
0060
0060
00C0
0180
0180
0300
0300
0600
0600
0C00
0C00
1800
1800
3000
7000
6000
FFF0
FFF0
ENDCHAR
STARTCHAR 017C
ENCODING 380
SWIDTH 392 0
DWIDTH 11 0
BBX 9 18 1 1
BITMAP
0C00
0C00
0000
0000
FF80
FF80
0300
0200
0600
0400
0C00
1800
1800
3000
2000
6000
FF80
FF80
ENDCHAR
STARTCHAR 017D
ENCODING 381
SWIDTH 500 0
DWIDTH 14 0
BBX 12 24 1 0
BITMAP
1080
0900
0600
0000
FFF0
FFF0
0060
00E0
00C0
0180
0180
0300
0300
0600
0600
0C00
1C00
1800
3800
3000
7000
6000
FFF0
FFF0
ENDCHAR
STARTCHAR 017E
ENCODING 382
SWIDTH 392 0
DWIDTH 11 0
BBX 9 20 1 0
BITMAP
6180
3300
1A00
0E00
0000
0000
FF80
FF80
0100
0300
0600
0400
0C00
0800
1800
3000
3000
6000
FF80
FF80
ENDCHAR
STARTCHAR 0192
ENCODING 402
SWIDTH 285 0
DWIDTH 8 0
BBX 10 26 -1 -6
BITMAP
07C0
0FC0
0C00
0C00
0C00
0C00
0FC0
0FC0
0C00
0C00
0C00
0C00
0C00
0C00
0C00
0C00
0C00
0C00
0C00
0C00
0C00
0C00
0C00
0C00
FC00
F800
ENDCHAR
STARTCHAR 0218
ENCODING 536
SWIDTH 464 0
DWIDTH 13 0
BBX 9 20 2 0
BITMAP
0600
0C00
0800
1000
0000
0000
FF00
FF80
0180
0180
0180
0180
7F80
C180
C180
C180
C180
C180
FF80
7F80
ENDCHAR
STARTCHAR 0219
ENCODING 537
SWIDTH 500 0
DWIDTH 14 0
BBX 10 26 2 -6
BITMAP
7FC0
FFC0
C000
C000
C000
C000
E000
7000
3800
1C00
0E00
0780
01C0
00C0
00C0
00C0
00C0
00C0
FFC0
FF80
0000
0C00
0C00
0C00
0800
1800
ENDCHAR
STARTCHAR 02C6
ENCODING 710
SWIDTH 392 0
DWIDTH 11 0
BBX 5 4 3 15
BITMAP
20
70
D8
88
ENDCHAR
STARTCHAR 02C7
ENCODING 711
SWIDTH 392 0
DWIDTH 11 0
BBX 7 4 2 15
BITMAP
C6
44
6C
38
ENDCHAR
STARTCHAR 02D8
ENCODING 728
SWIDTH 392 0
DWIDTH 11 0
BBX 8 3 2 17
BITMAP
83
C3
7E
ENDCHAR
STARTCHAR 02D9
ENCODING 729
SWIDTH 214 0
DWIDTH 6 0
BBX 2 2 2 17
BITMAP
C0
C0
ENDCHAR
STARTCHAR 02DA
ENCODING 730
SWIDTH 392 0
DWIDTH 11 0
BBX 6 5 2 15
BITMAP
7C
84
84
84
78
ENDCHAR
STARTCHAR 02DB
ENCODING 731
SWIDTH 357 0
DWIDTH 10 0
BBX 5 6 2 -6
BITMAP
18
60
C0
C0
C0
78
ENDCHAR
STARTCHAR 02DC
ENCODING 732
SWIDTH 464 0
DWIDTH 13 0
BBX 9 4 2 16
BITMAP
7080
F880
8F80
8700
ENDCHAR
STARTCHAR 02DD
ENCODING 733
SWIDTH 428 0
DWIDTH 12 0
BBX 8 4 2 16
BITMAP
33
26
44
C8
ENDCHAR
STARTCHAR 0394
ENCODING 916
SWIDTH 500 0
DWIDTH 14 0
BBX 13 20 0 0
BITMAP
0200
0300
0700
0700
0500
0D80
0D80
0C80
18C0
18C0
18C0
1060
3060
3060
2020
6030
6030
6030
FFF8
FFF8
ENDCHAR
STARTCHAR 03A9
ENCODING 937
SWIDTH 535 0
DWIDTH 15 0
BBX 11 20 2 0
BITMAP
7FC0
FFE0
C060
C060
C060
C060
C060
C060
C060
C060
C060
C060
FBE0
7BC0
1B00
1B00
1B00
1B00
FBE0
FBE0
ENDCHAR
STARTCHAR 03C0
ENCODING 960
SWIDTH 500 0
DWIDTH 14 0
BBX 12 15 1 0
BITMAP
1000
7C10
BF10
B3E0
30C0
30C0
30C0
30C0
30C0
30C0
30C0
30C0
30C0
30C0
30C0
ENDCHAR
STARTCHAR 2013
ENCODING 8211
SWIDTH 464 0
DWIDTH 13 0
BBX 10 2 2 7
BITMAP
FFC0
FFC0
ENDCHAR
STARTCHAR 2014
ENCODING 8212
SWIDTH 714 0
DWIDTH 20 0
BBX 17 2 2 7
BITMAP
FFFF80
FFFF80
ENDCHAR
STARTCHAR 2018
ENCODING 8216
SWIDTH 214 0
DWIDTH 6 0
BBX 3 6 2 15
BITMAP
60
60
C0
C0
C0
C0
ENDCHAR
STARTCHAR 2019
ENCODING 8217
SWIDTH 214 0
DWIDTH 6 0
BBX 3 6 1 14
BITMAP
60
60
60
40
C0
C0
ENDCHAR
STARTCHAR 201A
ENCODING 8218
SWIDTH 214 0
DWIDTH 6 0
BBX 3 6 1 -4
BITMAP
60
60
60
60
C0
C0
ENDCHAR
STARTCHAR 201C
ENCODING 8220
SWIDTH 357 0
DWIDTH 10 0
BBX 7 6 2 15
BITMAP
66
46
CC
CC
CC
CC
ENDCHAR
STARTCHAR 201D
ENCODING 8221
SWIDTH 357 0
DWIDTH 10 0
BBX 7 6 1 14
BITMAP
66
66
66
46
CC
CC
ENDCHAR
STARTCHAR 201E
ENCODING 8222
SWIDTH 357 0
DWIDTH 10 0
BBX 7 6 1 -4
BITMAP
66
66
66
66
C4
CC
ENDCHAR
STARTCHAR 2020
ENCODING 8224
SWIDTH 500 0
DWIDTH 14 0
BBX 12 20 1 0
BITMAP
0600
0600
0600
0600
0600
0600
FFF0
FFF0
0600
0600
0600
0600
0600
0600
0600
0600
0600
0600
0600
0600
ENDCHAR
STARTCHAR 2021
ENCODING 8225
SWIDTH 535 0
DWIDTH 15 0
BBX 12 20 2 0
BITMAP
0600
0600
0600
0600
0600
0600
FFF0
FFF0
0600
0600
0600
0600
FFF0
FFF0
0600
0600
0600
0600
0600
0600
ENDCHAR
STARTCHAR 2022
ENCODING 8226
SWIDTH 428 0
DWIDTH 12 0
BBX 8 12 2 1
BITMAP
7F
FF
FF
FF
FF
FF
FF
FF
FF
FF
FF
7E
ENDCHAR
STARTCHAR 2026
ENCODING 8230
SWIDTH 678 0
DWIDTH 19 0
BBX 15 2 2 1
BITMAP
C306
C306
ENDCHAR
STARTCHAR 2030
ENCODING 8240
SWIDTH 857 0
DWIDTH 24 0
BBX 23 20 1 0
BITMAP
7C1800
EE1800
C63000
C63000
C66000
C66000
C6C000
C6C000
C78000
7D8000
030000
037C7C
06C6C6
06C6C6
0CC6C6
0CC6C6
18C6C6
18C6C6
30EEEE
307C7C
ENDCHAR
STARTCHAR 2039
ENCODING 8249
SWIDTH 357 0
DWIDTH 10 0
BBX 8 12 1 2
BITMAP
03
07
1C
38
70
C0
E0
78
1C
0E
03
01
ENDCHAR
STARTCHAR 203A
ENCODING 8250
SWIDTH 357 0
DWIDTH 10 0
BBX 8 12 1 2
BITMAP
C0
E0
78
1C
0E
07
07
0E
38
70
C0
80
ENDCHAR
STARTCHAR 2044
ENCODING 8260
SWIDTH 428 0
DWIDTH 12 0
BBX 12 20 0 0
BITMAP
0030
0060
0060
00C0
00C0
0180
0180
0300
0300
0600
0600
0C00
0C00
1800
1800
3000
3000
6000
6000
C000
ENDCHAR
STARTCHAR 20AC
ENCODING 8364
SWIDTH 464 0
DWIDTH 13 0
BBX 11 20 1 0
BITMAP
3FE0
7FE0
6000
6000
6000
6000
6000
FF80
6000
6000
6000
FF80
6000
6000
6000
6000
6000
6000
7FE0
3FE0
ENDCHAR
STARTCHAR 2122
ENCODING 8482
SWIDTH 535 0
DWIDTH 15 0
BBX 11 9 2 13
BITMAP
8000
8000
EFE0
8920
8920
8920
8920
8920
E920
ENDCHAR
STARTCHAR 2202
ENCODING 8706
SWIDTH 500 0
DWIDTH 14 0
BBX 10 19 2 1
BITMAP
6000
3000
1800
0C00
0600
0300
0180
00C0
7FC0
FFC0
C0C0
C0C0
C0C0
C0C0
C0C0
C0C0
C0C0
FFC0
7F80
ENDCHAR
STARTCHAR 220F
ENCODING 8719
SWIDTH 535 0
DWIDTH 15 0
BBX 11 20 2 0
BITMAP
FFE0
FFE0
C060
C060
C060
C060
C060
C060
C060
C060
C060
C060
C060
C060
C060
C060
C060
C060
C060
C060
ENDCHAR
STARTCHAR 2211
ENCODING 8721
SWIDTH 500 0
DWIDTH 14 0
BBX 11 20 1 0
BITMAP
FFE0
FFE0
6000
6000
3000
3000
1800
1800
0C00
0C00
0C00
0C00
1800
1800
3000
3000
6000
6000
FFE0
FFE0
ENDCHAR
STARTCHAR 221A
ENCODING 8730
SWIDTH 678 0
DWIDTH 19 0
BBX 16 20 2 0
BITMAP
0003
0003
0006
0006
000C
000C
FC18
FC18
0C30
0C30
0C60
0C60
0CC0
0CC0
0D80
0D80
0F00
0F00
0E00
0E00
ENDCHAR
STARTCHAR 221E
ENCODING 8734
SWIDTH 750 0
DWIDTH 21 0
BBX 19 10 1 5
BITMAP
7FFFC0
FFFFE0
C0C060
C0C060
C0C060
C0C060
C0C060
C0C060
FFFFE0
7F9FC0
ENDCHAR
STARTCHAR 222B
ENCODING 8747
SWIDTH 285 0
DWIDTH 8 0
BBX 10 26 -1 -6
BITMAP
07C0
0FC0
0C00
0C00
0C00
0C00
0C00
0C00
0C00
0C00
0C00
0C00
0C00
0C00
0C00
0C00
0C00
0C00
0C00
0C00
0C00
0C00
0C00
0C00
FC00
F800
ENDCHAR
STARTCHAR 2248
ENCODING 8776
SWIDTH 464 0
DWIDTH 13 0
BBX 11 10 1 4
BITMAP
3020
7C20
CE20
87E0
81C0
0000
7820
FE20
87E0
83C0
ENDCHAR
STARTCHAR 2260
ENCODING 8800
SWIDTH 464 0
DWIDTH 13 0
BBX 10 14 2 2
BITMAP
0080
0180
0100
FFC0
FFC0
0600
0400
0800
1800
FFC0
FFC0
2000
6000
4000
ENDCHAR
STARTCHAR 2264
ENCODING 8804
SWIDTH 464 0
DWIDTH 13 0
BBX 10 15 2 1
BITMAP
00C0
0380
0E00
3C00
7000
C000
7000
3C00
0F00
0380
00C0
0000
0000
FFC0
FFC0
ENDCHAR
STARTCHAR 2265
ENCODING 8805
SWIDTH 464 0
DWIDTH 13 0
BBX 10 15 2 1
BITMAP
C000
7000
3C00
0F00
0380
00C0
0380
0F00
1C00
7000
C000
0000
0000
FFC0
FFC0
ENDCHAR
STARTCHAR 25CA
ENCODING 9674
SWIDTH 500 0
DWIDTH 14 0
BBX 12 26 1 -6
BITMAP
0600
0600
0F00
0F00
0F80
1980
1980
30C0
30C0
70E0
6060
6060
C030
C030
6060
6060
70E0
30C0
30C0
1980
1980
1F00
0F00
0F00
0600
0600
ENDCHAR
STARTCHAR F6C3
ENCODING 63171
SWIDTH 214 0
DWIDTH 6 0
BBX 3 5 1 -6
BITMAP
60
60
60
C0
C0
ENDCHAR
STARTCHAR F6C9
ENCODING 63177
SWIDTH 464 0
DWIDTH 13 0
BBX 4 3 6 21
BITMAP
30
60
C0
ENDCHAR
STARTCHAR F6CA
ENCODING 63178
SWIDTH 392 0
DWIDTH 11 0
BBX 5 3 3 21
BITMAP
88
50
20
ENDCHAR
STARTCHAR F6CB
ENCODING 63179
SWIDTH 357 0
DWIDTH 10 0
BBX 6 2 2 21
BITMAP
CC
CC
ENDCHAR
STARTCHAR F6CE
ENCODING 63182
SWIDTH 321 0
DWIDTH 9 0
BBX 4 3 3 21
BITMAP
C0
60
30
ENDCHAR
STARTCHAR F6CF
ENCODING 63183
SWIDTH 428 0
DWIDTH 12 0
BBX 7 3 2 20
BITMAP
32
64
C8
ENDCHAR
STARTCHAR F6D0
ENCODING 63184
SWIDTH 357 0
DWIDTH 10 0
BBX 6 1 2 22
BITMAP
FC
ENDCHAR
STARTCHAR FB01
ENCODING 64257
SWIDTH 464 0
DWIDTH 13 0
BBX 9 20 2 0
BITMAP
7F80
FF80
C000
C000
C000
C000
FF80
FF80
C180
C180
C180
C180
C180
C180
C180
C180
C180
C180
C180
C180
ENDCHAR
STARTCHAR FB02
ENCODING 64258
SWIDTH 464 0
DWIDTH 13 0
BBX 9 20 2 0
BITMAP
7980
F980
C180
C180
C180
C180
FF80
FF80
C180
C180
C180
C180
C180
C180
C180
C180
C180
C180
C180
C180
ENDCHAR
ENDFONT
